# MagicaVoxel @ Ephtracy

# group
o 

# material
mtllib blue car.mtl
usemtl palette

# normals
vn -1 0 0
vn 1 0 0
vn 0 0 1
vn 0 0 -1
vn 0 -1 0
vn 0 1 0

# texcoords
vt 0.310547 0.5
vt 0.494141 0.5
vt 0.521484 0.5
vt 0.732422 0.5
vt 0.962891 0.5
vt 0.978516 0.5
vt 0.994141 0.5

# verts
v 1.4 2.4 -1.9
v 1.4 2.4 -2.1
v 1.4 2.5 -1.9
v 1.4 2.5 -2.1
v 1.5 2 -1.4
v 1.5 2 -1.7
v 1.5 2 -2.4
v 1.5 2 -2.7
v 1.5 2.1 -1.2
v 1.5 2.1 -1.4
v 1.5 2.1 -1.5
v 1.5 2.1 -1.6
v 1.5 2.1 -1.7
v 1.5 2.1 -2.4
v 1.5 2.1 -2.5
v 1.5 2.1 -2.6
v 1.5 2.1 -2.7
v 1.5 2.1 -2.9
v 1.5 2.2 -1.2
v 1.5 2.2 -1.4
v 1.5 2.2 -1.5
v 1.5 2.2 -1.6
v 1.5 2.2 -1.7
v 1.5 2.2 -2.4
v 1.5 2.2 -2.5
v 1.5 2.2 -2.6
v 1.5 2.2 -2.7
v 1.5 2.2 -2.9
v 1.5 2.3 -1.2
v 1.5 2.3 -1.4
v 1.5 2.3 -1.7
v 1.5 2.3 -2.4
v 1.5 2.3 -2.7
v 1.5 2.3 -2.9
v 1.5 2.4 -1.9
v 1.5 2.4 -2.1
v 1.5 2.5 -1.2
v 1.5 2.5 -1.9
v 1.5 2.5 -2.1
v 1.5 2.5 -2.9
v 1.7 2.5 -1.8
v 1.7 2.5 -1.9
v 1.7 2.5 -2.3
v 1.7 2.5 -2.4
v 1.7 2.5 -2.5
v 1.7 2.5 -2.6
v 1.7 2.7 -1.9
v 1.7 2.7 -2.3
v 1.7 2.7 -2.4
v 1.7 2.7 -2.5
v 1.7 2.8 -1.8
v 1.7 2.8 -2.6
v 2.1 2.1 -1.3
v 2.1 2.1 -2.8
v 2.1 2.2 -1.3
v 2.1 2.2 -2.8
v 2.2 2.1 -1.2
v 2.2 2.1 -1.3
v 2.2 2.1 -2.8
v 2.2 2.1 -2.9
v 2.2 2.2 -1.2
v 2.2 2.2 -1.3
v 2.2 2.2 -2.8
v 2.2 2.2 -2.9
v 2.3 2 -1.4
v 2.3 2 -1.7
v 2.3 2 -2.4
v 2.3 2 -2.7
v 2.3 2.1 -1.4
v 2.3 2.1 -1.7
v 2.3 2.1 -2.4
v 2.3 2.1 -2.7
v 1.6 2 -1.4
v 1.6 2 -1.7
v 1.6 2 -2.4
v 1.6 2 -2.7
v 1.6 2.1 -1.4
v 1.6 2.1 -1.7
v 1.6 2.1 -2.4
v 1.6 2.1 -2.7
v 1.7 2.1 -1.2
v 1.7 2.1 -1.3
v 1.7 2.1 -2.8
v 1.7 2.1 -2.9
v 1.7 2.2 -1.2
v 1.7 2.2 -1.3
v 1.7 2.2 -2.8
v 1.7 2.2 -2.9
v 1.8 2.1 -1.3
v 1.8 2.1 -2.8
v 1.8 2.2 -1.3
v 1.8 2.2 -2.8
v 2.2 2.5 -1.8
v 2.2 2.5 -1.9
v 2.2 2.5 -2.3
v 2.2 2.5 -2.4
v 2.2 2.5 -2.5
v 2.2 2.5 -2.6
v 2.2 2.7 -1.9
v 2.2 2.7 -2.3
v 2.2 2.7 -2.4
v 2.2 2.7 -2.5
v 2.2 2.8 -1.8
v 2.2 2.8 -2.6
v 2.4 2 -1.4
v 2.4 2 -1.7
v 2.4 2 -2.4
v 2.4 2 -2.7
v 2.4 2.1 -1.2
v 2.4 2.1 -1.4
v 2.4 2.1 -1.5
v 2.4 2.1 -1.6
v 2.4 2.1 -1.7
v 2.4 2.1 -2.4
v 2.4 2.1 -2.5
v 2.4 2.1 -2.6
v 2.4 2.1 -2.7
v 2.4 2.1 -2.9
v 2.4 2.2 -1.2
v 2.4 2.2 -1.4
v 2.4 2.2 -1.5
v 2.4 2.2 -1.6
v 2.4 2.2 -1.7
v 2.4 2.2 -2.4
v 2.4 2.2 -2.5
v 2.4 2.2 -2.6
v 2.4 2.2 -2.7
v 2.4 2.2 -2.9
v 2.4 2.3 -1.2
v 2.4 2.3 -1.4
v 2.4 2.3 -1.7
v 2.4 2.3 -2.4
v 2.4 2.3 -2.7
v 2.4 2.3 -2.9
v 2.4 2.4 -1.9
v 2.4 2.4 -2.1
v 2.4 2.5 -1.2
v 2.4 2.5 -1.9
v 2.4 2.5 -2.1
v 2.4 2.5 -2.9
v 2.5 2.4 -1.9
v 2.5 2.4 -2.1
v 2.5 2.5 -1.9
v 2.5 2.5 -2.1
v 1.5 2.1 -1.2
v 1.5 2.2 -1.2
v 1.5 2.3 -1.2
v 1.5 2.5 -1.2
v 1.7 2.1 -1.2
v 1.7 2.2 -1.2
v 1.7 2.3 -1.2
v 1.7 2.4 -1.2
v 1.8 2.3 -1.2
v 1.8 2.4 -1.2
v 1.8 2.5 -1.2
v 2.1 2.3 -1.2
v 2.1 2.4 -1.2
v 2.1 2.5 -1.2
v 2.2 2.1 -1.2
v 2.2 2.2 -1.2
v 2.2 2.3 -1.2
v 2.2 2.4 -1.2
v 2.4 2.1 -1.2
v 2.4 2.2 -1.2
v 2.4 2.3 -1.2
v 2.4 2.5 -1.2
v 1.7 2.1 -1.3
v 1.7 2.2 -1.3
v 1.8 2.1 -1.3
v 1.8 2.2 -1.3
v 2.1 2.1 -1.3
v 2.1 2.2 -1.3
v 2.2 2.1 -1.3
v 2.2 2.2 -1.3
v 1.5 2 -1.4
v 1.5 2.1 -1.4
v 1.6 2 -1.4
v 1.6 2.1 -1.4
v 2.3 2 -1.4
v 2.3 2.1 -1.4
v 2.4 2 -1.4
v 2.4 2.1 -1.4
v 1.7 2.5 -1.8
v 1.7 2.8 -1.8
v 1.8 2.5 -1.8
v 1.8 2.7 -1.8
v 2.1 2.5 -1.8
v 2.1 2.7 -1.8
v 2.2 2.5 -1.8
v 2.2 2.8 -1.8
v 1.4 2.4 -1.9
v 1.4 2.5 -1.9
v 1.5 2.4 -1.9
v 1.5 2.5 -1.9
v 2.4 2.4 -1.9
v 2.4 2.5 -1.9
v 2.5 2.4 -1.9
v 2.5 2.5 -1.9
v 1.5 2 -2.4
v 1.5 2.1 -2.4
v 1.6 2 -2.4
v 1.6 2.1 -2.4
v 2.3 2 -2.4
v 2.3 2.1 -2.4
v 2.4 2 -2.4
v 2.4 2.1 -2.4
v 1.5 2 -1.7
v 1.5 2.1 -1.7
v 1.6 2 -1.7
v 1.6 2.1 -1.7
v 2.3 2 -1.7
v 2.3 2.1 -1.7
v 2.4 2 -1.7
v 2.4 2.1 -1.7
v 1.4 2.4 -2.1
v 1.4 2.5 -2.1
v 1.5 2.4 -2.1
v 1.5 2.5 -2.1
v 2.4 2.4 -2.1
v 2.4 2.5 -2.1
v 2.5 2.4 -2.1
v 2.5 2.5 -2.1
v 1.7 2.5 -2.6
v 1.7 2.8 -2.6
v 1.8 2.5 -2.6
v 2.1 2.5 -2.6
v 2.2 2.5 -2.6
v 2.2 2.8 -2.6
v 1.5 2 -2.7
v 1.5 2.1 -2.7
v 1.6 2 -2.7
v 1.6 2.1 -2.7
v 2.3 2 -2.7
v 2.3 2.1 -2.7
v 2.4 2 -2.7
v 2.4 2.1 -2.7
v 1.7 2.1 -2.8
v 1.7 2.2 -2.8
v 1.8 2.1 -2.8
v 1.8 2.2 -2.8
v 2.1 2.1 -2.8
v 2.1 2.2 -2.8
v 2.2 2.1 -2.8
v 2.2 2.2 -2.8
v 1.5 2.1 -2.9
v 1.5 2.2 -2.9
v 1.5 2.3 -2.9
v 1.5 2.5 -2.9
v 1.7 2.1 -2.9
v 1.7 2.2 -2.9
v 1.8 2.3 -2.9
v 1.8 2.5 -2.9
v 2.1 2.3 -2.9
v 2.1 2.5 -2.9
v 2.2 2.1 -2.9
v 2.2 2.2 -2.9
v 2.4 2.1 -2.9
v 2.4 2.2 -2.9
v 2.4 2.3 -2.9
v 2.4 2.5 -2.9
v 1.5 2 -1.4
v 1.6 2 -1.4
v 2.3 2 -1.4
v 2.4 2 -1.4
v 1.5 2 -1.7
v 1.6 2 -1.7
v 2.3 2 -1.7
v 2.4 2 -1.7
v 1.5 2 -2.4
v 1.6 2 -2.4
v 2.3 2 -2.4
v 2.4 2 -2.4
v 1.5 2 -2.7
v 1.6 2 -2.7
v 2.3 2 -2.7
v 2.4 2 -2.7
v 1.5 2.1 -1.2
v 1.7 2.1 -1.2
v 2.2 2.1 -1.2
v 2.4 2.1 -1.2
v 1.7 2.1 -1.3
v 1.8 2.1 -1.3
v 2.1 2.1 -1.3
v 2.2 2.1 -1.3
v 1.5 2.1 -1.4
v 1.6 2.1 -1.4
v 2.3 2.1 -1.4
v 2.4 2.1 -1.4
v 1.5 2.1 -1.7
v 1.6 2.1 -1.7
v 2.3 2.1 -1.7
v 2.4 2.1 -1.7
v 1.5 2.1 -2.4
v 1.6 2.1 -2.4
v 2.3 2.1 -2.4
v 2.4 2.1 -2.4
v 1.5 2.1 -2.7
v 1.6 2.1 -2.7
v 2.3 2.1 -2.7
v 2.4 2.1 -2.7
v 1.7 2.1 -2.8
v 1.8 2.1 -2.8
v 2.1 2.1 -2.8
v 2.2 2.1 -2.8
v 1.5 2.1 -2.9
v 1.7 2.1 -2.9
v 2.2 2.1 -2.9
v 2.4 2.1 -2.9
v 1.7 2.2 -1.2
v 2.2 2.2 -1.2
v 1.7 2.2 -1.3
v 1.8 2.2 -1.3
v 2.1 2.2 -1.3
v 2.2 2.2 -1.3
v 1.7 2.2 -2.8
v 1.8 2.2 -2.8
v 2.1 2.2 -2.8
v 2.2 2.2 -2.8
v 1.7 2.2 -2.9
v 2.2 2.2 -2.9
v 1.4 2.4 -1.9
v 1.5 2.4 -1.9
v 2.4 2.4 -1.9
v 2.5 2.4 -1.9
v 1.4 2.4 -2.1
v 1.5 2.4 -2.1
v 2.4 2.4 -2.1
v 2.5 2.4 -2.1
v 1.5 2.5 -1.2
v 1.8 2.5 -1.2
v 2.1 2.5 -1.2
v 2.4 2.5 -1.2
v 1.7 2.5 -1.8
v 1.8 2.5 -1.8
v 2.1 2.5 -1.8
v 2.2 2.5 -1.8
v 1.4 2.5 -1.9
v 1.5 2.5 -1.9
v 1.7 2.5 -1.9
v 2.2 2.5 -1.9
v 2.4 2.5 -1.9
v 2.5 2.5 -1.9
v 1.4 2.5 -2.1
v 1.5 2.5 -2.1
v 2.4 2.5 -2.1
v 2.5 2.5 -2.1
v 1.7 2.5 -2.3
v 2.2 2.5 -2.3
v 1.7 2.5 -2.4
v 2.2 2.5 -2.4
v 1.7 2.5 -2.5
v 2.2 2.5 -2.5
v 1.7 2.5 -2.6
v 1.8 2.5 -2.6
v 2.1 2.5 -2.6
v 2.2 2.5 -2.6
v 1.5 2.5 -2.9
v 1.8 2.5 -2.9
v 2.1 2.5 -2.9
v 2.4 2.5 -2.9
v 1.7 2.8 -1.8
v 2.2 2.8 -1.8
v 1.7 2.8 -2.6
v 2.2 2.8 -2.6

# faces
f 3/3/1 2/3/1 1/3/1
f 4/3/1 2/3/1 3/3/1
f 10/7/1 6/7/1 5/7/1
f 11/7/1 6/7/1 10/7/1
f 12/7/1 6/7/1 11/7/1
f 13/7/1 6/7/1 12/7/1
f 14/7/1 8/7/1 7/7/1
f 15/7/1 8/7/1 14/7/1
f 16/7/1 8/7/1 15/7/1
f 17/7/1 8/7/1 16/7/1
f 19/6/1 10/6/1 9/6/1
f 20/7/1 11/7/1 10/7/1
f 20/6/1 10/6/1 19/6/1
f 21/1/1 12/1/1 11/1/1
f 21/7/1 11/7/1 20/7/1
f 22/7/1 13/7/1 12/7/1
f 22/1/1 12/1/1 21/1/1
f 23/6/1 14/6/1 13/6/1
f 23/7/1 13/7/1 22/7/1
f 24/7/1 15/7/1 14/7/1
f 24/6/1 14/6/1 23/6/1
f 25/1/1 16/1/1 15/1/1
f 25/7/1 15/7/1 24/7/1
f 26/7/1 17/7/1 16/7/1
f 26/1/1 16/1/1 25/1/1
f 27/6/1 18/6/1 17/6/1
f 27/7/1 17/7/1 26/7/1
f 28/6/1 18/6/1 27/6/1
f 29/3/1 20/3/1 19/3/1
f 30/7/1 21/7/1 20/7/1
f 30/3/1 20/3/1 29/3/1
f 30/7/1 22/7/1 21/7/1
f 30/7/1 23/7/1 22/7/1
f 31/3/1 24/3/1 23/3/1
f 31/7/1 23/7/1 30/7/1
f 32/7/1 26/7/1 25/7/1
f 32/3/1 24/3/1 31/3/1
f 32/7/1 27/7/1 26/7/1
f 32/7/1 25/7/1 24/7/1
f 33/3/1 28/3/1 27/3/1
f 33/7/1 27/7/1 32/7/1
f 34/3/1 28/3/1 33/3/1
f 35/2/1 31/2/1 30/2/1
f 35/2/1 32/2/1 31/2/1
f 35/2/1 34/2/1 33/2/1
f 35/2/1 33/2/1 32/2/1
f 35/2/1 30/2/1 29/2/1
f 36/2/1 34/2/1 35/2/1
f 37/2/1 35/2/1 29/2/1
f 38/2/1 35/2/1 37/2/1
f 39/2/1 34/2/1 36/2/1
f 40/2/1 34/2/1 39/2/1
f 47/5/1 42/5/1 41/5/1
f 47/7/1 43/7/1 42/7/1
f 48/5/1 44/5/1 43/5/1
f 48/7/1 43/7/1 47/7/1
f 49/7/1 45/7/1 44/7/1
f 49/5/1 44/5/1 48/5/1
f 50/5/1 46/5/1 45/5/1
f 50/7/1 45/7/1 49/7/1
f 51/5/1 49/5/1 48/5/1
f 51/5/1 48/5/1 47/5/1
f 51/5/1 50/5/1 49/5/1
f 51/5/1 47/5/1 41/5/1
f 52/5/1 46/5/1 50/5/1
f 52/5/1 50/5/1 51/5/1
f 55/6/1 54/6/1 53/6/1
f 56/6/1 54/6/1 55/6/1
f 61/6/1 58/6/1 57/6/1
f 62/6/1 58/6/1 61/6/1
f 63/6/1 60/6/1 59/6/1
f 64/6/1 60/6/1 63/6/1
f 69/7/1 66/7/1 65/7/1
f 70/7/1 66/7/1 69/7/1
f 71/7/1 68/7/1 67/7/1
f 72/7/1 68/7/1 71/7/1
f 73/7/2 74/7/2 77/7/2
f 77/7/2 74/7/2 78/7/2
f 75/7/2 76/7/2 79/7/2
f 79/7/2 76/7/2 80/7/2
f 81/6/2 82/6/2 85/6/2
f 85/6/2 82/6/2 86/6/2
f 83/6/2 84/6/2 87/6/2
f 87/6/2 84/6/2 88/6/2
f 89/6/2 90/6/2 91/6/2
f 91/6/2 90/6/2 92/6/2
f 93/5/2 94/5/2 99/5/2
f 94/7/2 95/7/2 99/7/2
f 95/5/2 96/5/2 100/5/2
f 99/7/2 95/7/2 100/7/2
f 96/7/2 97/7/2 101/7/2
f 100/5/2 96/5/2 101/5/2
f 97/5/2 98/5/2 102/5/2
f 101/7/2 97/7/2 102/7/2
f 100/5/2 101/5/2 103/5/2
f 99/5/2 100/5/2 103/5/2
f 101/5/2 102/5/2 103/5/2
f 93/5/2 99/5/2 103/5/2
f 102/5/2 98/5/2 104/5/2
f 103/5/2 102/5/2 104/5/2
f 105/7/2 106/7/2 110/7/2
f 110/7/2 106/7/2 111/7/2
f 111/7/2 106/7/2 112/7/2
f 112/7/2 106/7/2 113/7/2
f 107/7/2 108/7/2 114/7/2
f 114/7/2 108/7/2 115/7/2
f 115/7/2 108/7/2 116/7/2
f 116/7/2 108/7/2 117/7/2
f 109/6/2 110/6/2 119/6/2
f 110/7/2 111/7/2 120/7/2
f 119/6/2 110/6/2 120/6/2
f 111/1/2 112/1/2 121/1/2
f 120/7/2 111/7/2 121/7/2
f 112/7/2 113/7/2 122/7/2
f 121/1/2 112/1/2 122/1/2
f 113/6/2 114/6/2 123/6/2
f 122/7/2 113/7/2 123/7/2
f 114/7/2 115/7/2 124/7/2
f 123/6/2 114/6/2 124/6/2
f 115/1/2 116/1/2 125/1/2
f 124/7/2 115/7/2 125/7/2
f 116/7/2 117/7/2 126/7/2
f 125/1/2 116/1/2 126/1/2
f 117/6/2 118/6/2 127/6/2
f 126/7/2 117/7/2 127/7/2
f 127/6/2 118/6/2 128/6/2
f 119/3/2 120/3/2 129/3/2
f 120/7/2 121/7/2 130/7/2
f 129/3/2 120/3/2 130/3/2
f 121/7/2 122/7/2 130/7/2
f 122/7/2 123/7/2 130/7/2
f 123/3/2 124/3/2 131/3/2
f 130/7/2 123/7/2 131/7/2
f 125/7/2 126/7/2 132/7/2
f 131/3/2 124/3/2 132/3/2
f 126/7/2 127/7/2 132/7/2
f 124/7/2 125/7/2 132/7/2
f 127/3/2 128/3/2 133/3/2
f 132/7/2 127/7/2 133/7/2
f 133/3/2 128/3/2 134/3/2
f 130/2/2 131/2/2 135/2/2
f 131/2/2 132/2/2 135/2/2
f 133/2/2 134/2/2 135/2/2
f 132/2/2 133/2/2 135/2/2
f 129/2/2 130/2/2 135/2/2
f 135/2/2 134/2/2 136/2/2
f 129/2/2 135/2/2 137/2/2
f 137/2/2 135/2/2 138/2/2
f 136/2/2 134/2/2 139/2/2
f 139/2/2 134/2/2 140/2/2
f 141/3/2 142/3/2 143/3/2
f 143/3/2 142/3/2 144/3/2
f 149/6/3 146/6/3 145/6/3
f 150/3/3 147/3/3 146/3/3
f 150/6/3 146/6/3 149/6/3
f 151/2/3 148/2/3 147/2/3
f 151/3/3 147/3/3 150/3/3
f 152/2/3 148/2/3 151/2/3
f 153/3/3 151/3/3 150/3/3
f 153/4/3 152/4/3 151/4/3
f 154/2/3 148/2/3 152/2/3
f 154/4/3 152/4/3 153/4/3
f 155/2/3 148/2/3 154/2/3
f 156/3/3 153/3/3 150/3/3
f 156/3/3 154/3/3 153/3/3
f 156/3/3 155/3/3 154/3/3
f 157/3/3 155/3/3 156/3/3
f 158/3/3 155/3/3 157/3/3
f 160/3/3 156/3/3 150/3/3
f 161/4/3 157/4/3 156/4/3
f 161/3/3 156/3/3 160/3/3
f 162/2/3 158/2/3 157/2/3
f 162/4/3 157/4/3 161/4/3
f 163/6/3 160/6/3 159/6/3
f 164/3/3 161/3/3 160/3/3
f 164/6/3 160/6/3 163/6/3
f 165/2/3 162/2/3 161/2/3
f 165/3/3 161/3/3 164/3/3
f 166/2/3 158/2/3 162/2/3
f 166/2/3 162/2/3 165/2/3
f 169/6/3 168/6/3 167/6/3
f 170/6/3 168/6/3 169/6/3
f 173/6/3 172/6/3 171/6/3
f 174/6/3 172/6/3 173/6/3
f 177/7/3 176/7/3 175/7/3
f 178/7/3 176/7/3 177/7/3
f 181/7/3 180/7/3 179/7/3
f 182/7/3 180/7/3 181/7/3
f 185/5/3 184/5/3 183/5/3
f 186/5/3 184/5/3 185/5/3
f 187/7/3 186/7/3 185/7/3
f 188/5/3 184/5/3 186/5/3
f 188/7/3 186/7/3 187/7/3
f 189/5/3 188/5/3 187/5/3
f 190/5/3 184/5/3 188/5/3
f 190/5/3 188/5/3 189/5/3
f 193/3/3 192/3/3 191/3/3
f 194/3/3 192/3/3 193/3/3
f 197/3/3 196/3/3 195/3/3
f 198/3/3 196/3/3 197/3/3
f 201/7/3 200/7/3 199/7/3
f 202/7/3 200/7/3 201/7/3
f 205/7/3 204/7/3 203/7/3
f 206/7/3 204/7/3 205/7/3
f 207/7/4 208/7/4 209/7/4
f 209/7/4 208/7/4 210/7/4
f 211/7/4 212/7/4 213/7/4
f 213/7/4 212/7/4 214/7/4
f 215/3/4 216/3/4 217/3/4
f 217/3/4 216/3/4 218/3/4
f 219/3/4 220/3/4 221/3/4
f 221/3/4 220/3/4 222/3/4
f 223/5/4 224/5/4 225/5/4
f 225/5/4 224/5/4 226/5/4
f 226/5/4 224/5/4 227/5/4
f 227/5/4 224/5/4 228/5/4
f 229/7/4 230/7/4 231/7/4
f 231/7/4 230/7/4 232/7/4
f 233/7/4 234/7/4 235/7/4
f 235/7/4 234/7/4 236/7/4
f 237/6/4 238/6/4 239/6/4
f 239/6/4 238/6/4 240/6/4
f 241/6/4 242/6/4 243/6/4
f 243/6/4 242/6/4 244/6/4
f 245/6/4 246/6/4 249/6/4
f 246/3/4 247/3/4 250/3/4
f 249/6/4 246/6/4 250/6/4
f 247/2/4 248/2/4 251/2/4
f 250/3/4 247/3/4 251/3/4
f 251/2/4 248/2/4 252/2/4
f 250/3/4 251/3/4 253/3/4
f 251/3/4 252/3/4 253/3/4
f 253/3/4 252/3/4 254/3/4
f 250/3/4 253/3/4 256/3/4
f 255/6/4 256/6/4 257/6/4
f 256/3/4 253/3/4 258/3/4
f 257/6/4 256/6/4 258/6/4
f 253/2/4 254/2/4 259/2/4
f 258/3/4 253/3/4 259/3/4
f 259/2/4 254/2/4 260/2/4
f 265/7/5 262/7/5 261/7/5
f 266/7/5 262/7/5 265/7/5
f 267/7/5 264/7/5 263/7/5
f 268/7/5 264/7/5 267/7/5
f 273/7/5 270/7/5 269/7/5
f 274/7/5 270/7/5 273/7/5
f 275/7/5 272/7/5 271/7/5
f 276/7/5 272/7/5 275/7/5
f 281/6/5 278/6/5 277/6/5
f 284/6/5 280/6/5 279/6/5
f 285/6/5 282/6/5 281/6/5
f 285/6/5 281/6/5 277/6/5
f 286/6/5 282/6/5 285/6/5
f 287/6/5 284/6/5 283/6/5
f 287/6/5 280/6/5 284/6/5
f 288/6/5 280/6/5 287/6/5
f 290/6/5 282/6/5 286/6/5
f 291/6/5 287/6/5 283/6/5
f 293/6/5 290/6/5 289/6/5
f 294/6/5 282/6/5 290/6/5
f 294/6/5 290/6/5 293/6/5
f 295/6/5 292/6/5 291/6/5
f 295/6/5 291/6/5 283/6/5
f 296/6/5 292/6/5 295/6/5
f 298/6/5 282/6/5 294/6/5
f 299/6/5 295/6/5 283/6/5
f 301/6/5 298/6/5 297/6/5
f 301/6/5 282/6/5 298/6/5
f 302/6/5 282/6/5 301/6/5
f 303/6/5 300/6/5 299/6/5
f 303/6/5 299/6/5 283/6/5
f 304/6/5 300/6/5 303/6/5
f 305/6/5 301/6/5 297/6/5
f 306/6/5 301/6/5 305/6/5
f 307/6/5 300/6/5 304/6/5
f 308/6/5 300/6/5 307/6/5
f 311/3/5 310/3/5 309/3/5
f 312/3/5 310/3/5 311/3/5
f 313/3/5 310/3/5 312/3/5
f 314/3/5 310/3/5 313/3/5
f 316/3/5 313/3/5 312/3/5
f 317/3/5 313/3/5 316/3/5
f 319/3/5 316/3/5 315/3/5
f 319/3/5 318/3/5 317/3/5
f 319/3/5 317/3/5 316/3/5
f 320/3/5 318/3/5 319/3/5
f 325/3/5 322/3/5 321/3/5
f 326/3/5 322/3/5 325/3/5
f 327/3/5 324/3/5 323/3/5
f 328/3/5 324/3/5 327/3/5
f 329/2/6 330/2/6 333/2/6
f 330/3/6 331/3/6 334/3/6
f 333/2/6 330/2/6 334/2/6
f 331/2/6 332/2/6 335/2/6
f 334/3/6 331/3/6 335/3/6
f 335/2/6 332/2/6 336/2/6
f 329/2/6 333/2/6 338/2/6
f 338/2/6 333/2/6 339/2/6
f 336/2/6 332/2/6 340/2/6
f 340/2/6 332/2/6 341/2/6
f 337/3/6 338/3/6 343/3/6
f 338/2/6 339/2/6 344/2/6
f 343/3/6 338/3/6 344/3/6
f 341/3/6 342/3/6 345/3/6
f 340/2/6 341/2/6 345/2/6
f 345/3/6 342/3/6 346/3/6
f 344/2/6 339/2/6 347/2/6
f 340/2/6 345/2/6 348/2/6
f 344/2/6 347/2/6 349/2/6
f 348/2/6 345/2/6 350/2/6
f 344/2/6 349/2/6 351/2/6
f 350/2/6 345/2/6 352/2/6
f 344/2/6 351/2/6 353/2/6
f 352/2/6 345/2/6 356/2/6
f 344/2/6 353/2/6 357/2/6
f 353/2/6 354/2/6 357/2/6
f 354/3/6 355/3/6 358/3/6
f 357/2/6 354/2/6 358/2/6
f 355/2/6 356/2/6 359/2/6
f 358/3/6 355/3/6 359/3/6
f 356/2/6 345/2/6 360/2/6
f 359/2/6 356/2/6 360/2/6
f 361/5/6 362/5/6 363/5/6
f 363/5/6 362/5/6 364/5/6
