# MagicaVoxel @ Ephtracy

# group
o 

# material
mtllib coin.mtl
usemtl palette

# normals
vn -1 0 0
vn 1 0 0
vn 0 0 1
vn 0 0 -1
vn 0 -1 0
vn 0 1 0

# texcoords
vt 0.0136719 0.5
vt 0.447266 0.5

# verts
v 1.7 2.4 -1.8
v 1.7 2.4 -2.1
v 1.7 2.5 -1.8
v 1.7 2.5 -2.1
v 1.7 2.5 -2.2
v 1.7 2.6 -1.8
v 1.7 2.6 -2.1
v 1.7 2.6 -2.2
v 1.7 2.7 -1.8
v 1.7 2.7 -2.1
v 1.8 2.2 -1.8
v 1.8 2.2 -2.1
v 1.8 2.3 -1.7
v 1.8 2.3 -1.8
v 1.8 2.3 -2.1
v 1.8 2.3 -2.2
v 1.8 2.4 -1.6
v 1.8 2.4 -1.7
v 1.8 2.4 -1.8
v 1.8 2.4 -2.1
v 1.8 2.4 -2.2
v 1.8 2.4 -2.3
v 1.8 2.5 -1.8
v 1.8 2.5 -2.1
v 1.8 2.5 -2.2
v 1.8 2.6 -1.8
v 1.8 2.6 -2.1
v 1.8 2.6 -2.2
v 1.8 2.7 -1.6
v 1.8 2.7 -1.7
v 1.8 2.7 -1.8
v 1.8 2.7 -2.1
v 1.8 2.7 -2.2
v 1.8 2.7 -2.3
v 1.8 2.8 -1.7
v 1.8 2.8 -1.8
v 1.8 2.8 -2.1
v 1.8 2.8 -2.2
v 1.8 2.9 -1.8
v 1.8 2.9 -2.1
v 1.9 2.2 -1.8
v 1.9 2.2 -2.1
v 1.9 2.3 -1.7
v 1.9 2.3 -1.8
v 1.9 2.3 -2.1
v 1.9 2.3 -2.2
v 1.9 2.4 -1.6
v 1.9 2.4 -1.7
v 1.9 2.4 -1.8
v 1.9 2.4 -2.1
v 1.9 2.4 -2.2
v 1.9 2.4 -2.3
v 1.9 2.5 -1.8
v 1.9 2.5 -2.1
v 1.9 2.5 -2.2
v 1.9 2.6 -1.8
v 1.9 2.6 -2.1
v 1.9 2.6 -2.2
v 1.9 2.7 -1.6
v 1.9 2.7 -1.7
v 1.9 2.7 -1.8
v 1.9 2.7 -2.1
v 1.9 2.7 -2.2
v 1.9 2.7 -2.3
v 1.9 2.8 -1.7
v 1.9 2.8 -1.8
v 1.9 2.8 -2.1
v 1.9 2.8 -2.2
v 1.9 2.9 -1.8
v 1.9 2.9 -2.1
v 2 2.4 -1.8
v 2 2.4 -2.1
v 2 2.5 -1.8
v 2 2.5 -2.1
v 2 2.5 -2.2
v 2 2.6 -1.8
v 2 2.6 -2.1
v 2 2.6 -2.2
v 2 2.7 -1.8
v 2 2.7 -2.1
v 1.8 2.4 -1.6
v 1.8 2.7 -1.6
v 1.9 2.4 -1.6
v 1.9 2.7 -1.6
v 1.8 2.3 -1.7
v 1.8 2.4 -1.7
v 1.8 2.7 -1.7
v 1.8 2.8 -1.7
v 1.9 2.3 -1.7
v 1.9 2.4 -1.7
v 1.9 2.7 -1.7
v 1.9 2.8 -1.7
v 1.7 2.4 -1.8
v 1.7 2.5 -1.8
v 1.7 2.6 -1.8
v 1.7 2.7 -1.8
v 1.8 2.2 -1.8
v 1.8 2.3 -1.8
v 1.8 2.4 -1.8
v 1.8 2.5 -1.8
v 1.8 2.6 -1.8
v 1.8 2.7 -1.8
v 1.8 2.8 -1.8
v 1.8 2.9 -1.8
v 1.9 2.2 -1.8
v 1.9 2.3 -1.8
v 1.9 2.4 -1.8
v 1.9 2.5 -1.8
v 1.9 2.6 -1.8
v 1.9 2.7 -1.8
v 1.9 2.8 -1.8
v 1.9 2.9 -1.8
v 2 2.4 -1.8
v 2 2.5 -1.8
v 2 2.6 -1.8
v 2 2.7 -1.8
v 1.7 2.5 -2.1
v 1.7 2.6 -2.1
v 1.8 2.5 -2.1
v 1.8 2.6 -2.1
v 1.9 2.5 -2.1
v 1.9 2.6 -2.1
v 2 2.5 -2.1
v 2 2.6 -2.1
v 1.7 2.4 -2.1
v 1.7 2.5 -2.1
v 1.7 2.6 -2.1
v 1.7 2.7 -2.1
v 1.8 2.2 -2.1
v 1.8 2.3 -2.1
v 1.8 2.4 -2.1
v 1.8 2.5 -2.1
v 1.8 2.6 -2.1
v 1.8 2.7 -2.1
v 1.8 2.8 -2.1
v 1.8 2.9 -2.1
v 1.9 2.2 -2.1
v 1.9 2.3 -2.1
v 1.9 2.4 -2.1
v 1.9 2.5 -2.1
v 1.9 2.6 -2.1
v 1.9 2.7 -2.1
v 1.9 2.8 -2.1
v 1.9 2.9 -2.1
v 2 2.4 -2.1
v 2 2.5 -2.1
v 2 2.6 -2.1
v 2 2.7 -2.1
v 1.7 2.5 -2.2
v 1.7 2.6 -2.2
v 1.8 2.3 -2.2
v 1.8 2.4 -2.2
v 1.8 2.5 -2.2
v 1.8 2.6 -2.2
v 1.8 2.7 -2.2
v 1.8 2.8 -2.2
v 1.9 2.3 -2.2
v 1.9 2.4 -2.2
v 1.9 2.5 -2.2
v 1.9 2.6 -2.2
v 1.9 2.7 -2.2
v 1.9 2.8 -2.2
v 2 2.5 -2.2
v 2 2.6 -2.2
v 1.8 2.4 -2.3
v 1.8 2.7 -2.3
v 1.9 2.4 -2.3
v 1.9 2.7 -2.3
v 1.8 2.2 -1.8
v 1.9 2.2 -1.8
v 1.8 2.2 -2.1
v 1.9 2.2 -2.1
v 1.8 2.3 -1.7
v 1.9 2.3 -1.7
v 1.8 2.3 -1.8
v 1.9 2.3 -1.8
v 1.8 2.3 -2.1
v 1.9 2.3 -2.1
v 1.8 2.3 -2.2
v 1.9 2.3 -2.2
v 1.8 2.4 -1.6
v 1.9 2.4 -1.6
v 1.8 2.4 -1.7
v 1.9 2.4 -1.7
v 1.7 2.4 -1.8
v 1.8 2.4 -1.8
v 1.9 2.4 -1.8
v 2 2.4 -1.8
v 1.7 2.4 -2.1
v 1.8 2.4 -2.1
v 1.9 2.4 -2.1
v 2 2.4 -2.1
v 1.8 2.4 -2.2
v 1.9 2.4 -2.2
v 1.8 2.4 -2.3
v 1.9 2.4 -2.3
v 1.7 2.5 -2.1
v 1.8 2.5 -2.1
v 1.9 2.5 -2.1
v 2 2.5 -2.1
v 1.7 2.5 -2.2
v 1.8 2.5 -2.2
v 1.9 2.5 -2.2
v 2 2.5 -2.2
v 1.7 2.6 -1.8
v 1.8 2.6 -1.8
v 1.9 2.6 -1.8
v 2 2.6 -1.8
v 1.7 2.6 -2.1
v 1.8 2.6 -2.1
v 1.9 2.6 -2.1
v 2 2.6 -2.1
v 1.7 2.5 -1.8
v 1.8 2.5 -1.8
v 1.9 2.5 -1.8
v 2 2.5 -1.8
v 1.7 2.5 -2.1
v 1.8 2.5 -2.1
v 1.9 2.5 -2.1
v 2 2.5 -2.1
v 1.7 2.6 -2.1
v 1.8 2.6 -2.1
v 1.9 2.6 -2.1
v 2 2.6 -2.1
v 1.7 2.6 -2.2
v 1.8 2.6 -2.2
v 1.9 2.6 -2.2
v 2 2.6 -2.2
v 1.8 2.7 -1.6
v 1.9 2.7 -1.6
v 1.8 2.7 -1.7
v 1.9 2.7 -1.7
v 1.7 2.7 -1.8
v 1.8 2.7 -1.8
v 1.9 2.7 -1.8
v 2 2.7 -1.8
v 1.7 2.7 -2.1
v 1.8 2.7 -2.1
v 1.9 2.7 -2.1
v 2 2.7 -2.1
v 1.8 2.7 -2.2
v 1.9 2.7 -2.2
v 1.8 2.7 -2.3
v 1.9 2.7 -2.3
v 1.8 2.8 -1.7
v 1.9 2.8 -1.7
v 1.8 2.8 -1.8
v 1.9 2.8 -1.8
v 1.8 2.8 -2.1
v 1.9 2.8 -2.1
v 1.8 2.8 -2.2
v 1.9 2.8 -2.2
v 1.8 2.9 -1.8
v 1.9 2.9 -1.8
v 1.8 2.9 -2.1
v 1.9 2.9 -2.1

# faces
f 3/2/1 2/2/1 1/2/1
f 4/2/1 2/2/1 3/2/1
f 7/2/1 5/2/1 4/2/1
f 8/2/1 5/2/1 7/2/1
f 9/2/1 7/2/1 6/2/1
f 10/2/1 7/2/1 9/2/1
f 14/1/1 12/1/1 11/1/1
f 15/1/1 12/1/1 14/1/1
f 18/1/1 14/1/1 13/1/1
f 18/1/1 16/1/1 15/1/1
f 18/1/1 15/1/1 14/1/1
f 19/1/1 16/1/1 18/1/1
f 20/1/1 16/1/1 19/1/1
f 21/1/1 16/1/1 20/1/1
f 23/1/1 18/1/1 17/1/1
f 23/1/1 19/1/1 18/1/1
f 24/1/1 22/1/1 21/1/1
f 24/1/1 21/1/1 20/1/1
f 25/1/1 22/1/1 24/1/1
f 26/1/1 23/1/1 17/1/1
f 26/1/1 24/1/1 23/1/1
f 27/1/1 24/1/1 26/1/1
f 28/1/1 22/1/1 25/1/1
f 29/1/1 26/1/1 17/1/1
f 30/1/1 26/1/1 29/1/1
f 31/1/1 26/1/1 30/1/1
f 32/1/1 28/1/1 27/1/1
f 33/1/1 22/1/1 28/1/1
f 33/1/1 28/1/1 32/1/1
f 34/1/1 22/1/1 33/1/1
f 35/1/1 31/1/1 30/1/1
f 35/1/1 32/1/1 31/1/1
f 35/1/1 33/1/1 32/1/1
f 36/1/1 33/1/1 35/1/1
f 37/1/1 33/1/1 36/1/1
f 38/1/1 33/1/1 37/1/1
f 39/1/1 37/1/1 36/1/1
f 40/1/1 37/1/1 39/1/1
f 41/1/2 42/1/2 44/1/2
f 44/1/2 42/1/2 45/1/2
f 43/1/2 44/1/2 48/1/2
f 45/1/2 46/1/2 48/1/2
f 44/1/2 45/1/2 48/1/2
f 48/1/2 46/1/2 49/1/2
f 49/1/2 46/1/2 50/1/2
f 50/1/2 46/1/2 51/1/2
f 47/1/2 48/1/2 53/1/2
f 48/1/2 49/1/2 53/1/2
f 51/1/2 52/1/2 54/1/2
f 50/1/2 51/1/2 54/1/2
f 54/1/2 52/1/2 55/1/2
f 47/1/2 53/1/2 56/1/2
f 53/1/2 54/1/2 56/1/2
f 56/1/2 54/1/2 57/1/2
f 55/1/2 52/1/2 58/1/2
f 47/1/2 56/1/2 59/1/2
f 59/1/2 56/1/2 60/1/2
f 60/1/2 56/1/2 61/1/2
f 57/1/2 58/1/2 62/1/2
f 58/1/2 52/1/2 63/1/2
f 62/1/2 58/1/2 63/1/2
f 63/1/2 52/1/2 64/1/2
f 60/1/2 61/1/2 65/1/2
f 61/1/2 62/1/2 65/1/2
f 62/1/2 63/1/2 65/1/2
f 65/1/2 63/1/2 66/1/2
f 66/1/2 63/1/2 67/1/2
f 67/1/2 63/1/2 68/1/2
f 66/1/2 67/1/2 69/1/2
f 69/1/2 67/1/2 70/1/2
f 71/2/2 72/2/2 73/2/2
f 73/2/2 72/2/2 74/2/2
f 74/2/2 75/2/2 77/2/2
f 77/2/2 75/2/2 78/2/2
f 76/2/2 77/2/2 79/2/2
f 79/2/2 77/2/2 80/2/2
f 83/1/3 82/1/3 81/1/3
f 84/1/3 82/1/3 83/1/3
f 89/1/3 86/1/3 85/1/3
f 90/1/3 86/1/3 89/1/3
f 91/1/3 88/1/3 87/1/3
f 92/1/3 88/1/3 91/1/3
f 99/2/3 94/2/3 93/2/3
f 100/2/3 94/2/3 99/2/3
f 101/2/3 96/2/3 95/2/3
f 102/2/3 96/2/3 101/2/3
f 105/1/3 98/1/3 97/1/3
f 106/1/3 98/1/3 105/1/3
f 111/1/3 104/1/3 103/1/3
f 112/1/3 104/1/3 111/1/3
f 113/2/3 108/2/3 107/2/3
f 114/2/3 108/2/3 113/2/3
f 115/2/3 110/2/3 109/2/3
f 116/2/3 110/2/3 115/2/3
f 119/2/3 118/2/3 117/2/3
f 120/2/3 118/2/3 119/2/3
f 123/2/3 122/2/3 121/2/3
f 124/2/3 122/2/3 123/2/3
f 125/2/4 126/2/4 131/2/4
f 131/2/4 126/2/4 132/2/4
f 127/2/4 128/2/4 133/2/4
f 133/2/4 128/2/4 134/2/4
f 129/1/4 130/1/4 137/1/4
f 137/1/4 130/1/4 138/1/4
f 135/1/4 136/1/4 143/1/4
f 143/1/4 136/1/4 144/1/4
f 139/2/4 140/2/4 145/2/4
f 145/2/4 140/2/4 146/2/4
f 141/2/4 142/2/4 147/2/4
f 147/2/4 142/2/4 148/2/4
f 149/2/4 150/2/4 153/2/4
f 153/2/4 150/2/4 154/2/4
f 151/1/4 152/1/4 157/1/4
f 157/1/4 152/1/4 158/1/4
f 155/1/4 156/1/4 161/1/4
f 161/1/4 156/1/4 162/1/4
f 159/2/4 160/2/4 163/2/4
f 163/2/4 160/2/4 164/2/4
f 165/1/4 166/1/4 167/1/4
f 167/1/4 166/1/4 168/1/4
f 171/1/5 170/1/5 169/1/5
f 172/1/5 170/1/5 171/1/5
f 175/1/5 174/1/5 173/1/5
f 176/1/5 174/1/5 175/1/5
f 179/1/5 178/1/5 177/1/5
f 180/1/5 178/1/5 179/1/5
f 183/1/5 182/1/5 181/1/5
f 184/1/5 182/1/5 183/1/5
f 189/2/5 186/2/5 185/2/5
f 190/2/5 186/2/5 189/2/5
f 191/2/5 188/2/5 187/2/5
f 192/2/5 188/2/5 191/2/5
f 195/1/5 194/1/5 193/1/5
f 196/1/5 194/1/5 195/1/5
f 201/2/5 198/2/5 197/2/5
f 202/2/5 198/2/5 201/2/5
f 203/2/5 200/2/5 199/2/5
f 204/2/5 200/2/5 203/2/5
f 209/2/5 206/2/5 205/2/5
f 210/2/5 206/2/5 209/2/5
f 211/2/5 208/2/5 207/2/5
f 212/2/5 208/2/5 211/2/5
f 213/2/6 214/2/6 217/2/6
f 217/2/6 214/2/6 218/2/6
f 215/2/6 216/2/6 219/2/6
f 219/2/6 216/2/6 220/2/6
f 221/2/6 222/2/6 225/2/6
f 225/2/6 222/2/6 226/2/6
f 223/2/6 224/2/6 227/2/6
f 227/2/6 224/2/6 228/2/6
f 229/1/6 230/1/6 231/1/6
f 231/1/6 230/1/6 232/1/6
f 233/2/6 234/2/6 237/2/6
f 237/2/6 234/2/6 238/2/6
f 235/2/6 236/2/6 239/2/6
f 239/2/6 236/2/6 240/2/6
f 241/1/6 242/1/6 243/1/6
f 243/1/6 242/1/6 244/1/6
f 245/1/6 246/1/6 247/1/6
f 247/1/6 246/1/6 248/1/6
f 249/1/6 250/1/6 251/1/6
f 251/1/6 250/1/6 252/1/6
f 253/1/6 254/1/6 255/1/6
f 255/1/6 254/1/6 256/1/6
