# MagicaVoxel @ Ephtracy

# group
o 

# material
mtllib green_car.mtl
usemtl palette

# normals
vn -1 0 0
vn 1 0 0
vn 0 0 1
vn 0 0 -1
vn 0 -1 0
vn 0 1 0

# texcoords
vt 0.310547 0.5
vt 0.494141 0.5
vt 0.521484 0.5
vt 0.712891 0.5
vt 0.728516 0.5
vt 0.962891 0.5
vt 0.978516 0.5
vt 0.994141 0.5

# verts
v 1.5 2.4 -1.8
v 1.5 2.4 -2
v 1.5 2.5 -1.8
v 1.5 2.5 -2
v 1.6 2 -1.3
v 1.6 2 -1.6
v 1.6 2 -2.3
v 1.6 2 -2.6
v 1.6 2.1 -1.1
v 1.6 2.1 -1.3
v 1.6 2.1 -1.4
v 1.6 2.1 -1.5
v 1.6 2.1 -1.6
v 1.6 2.1 -2.3
v 1.6 2.1 -2.4
v 1.6 2.1 -2.5
v 1.6 2.1 -2.6
v 1.6 2.1 -2.8
v 1.6 2.2 -1.1
v 1.6 2.2 -1.3
v 1.6 2.2 -1.4
v 1.6 2.2 -1.5
v 1.6 2.2 -1.6
v 1.6 2.2 -2.3
v 1.6 2.2 -2.4
v 1.6 2.2 -2.5
v 1.6 2.2 -2.6
v 1.6 2.2 -2.8
v 1.6 2.3 -1.1
v 1.6 2.3 -1.3
v 1.6 2.3 -1.6
v 1.6 2.3 -2.3
v 1.6 2.3 -2.6
v 1.6 2.3 -2.8
v 1.6 2.4 -1.8
v 1.6 2.4 -2
v 1.6 2.5 -1.1
v 1.6 2.5 -1.8
v 1.6 2.5 -2
v 1.6 2.5 -2.8
v 1.8 2.5 -1.7
v 1.8 2.5 -1.8
v 1.8 2.5 -2.2
v 1.8 2.5 -2.3
v 1.8 2.5 -2.4
v 1.8 2.5 -2.5
v 1.8 2.7 -1.8
v 1.8 2.7 -2.2
v 1.8 2.7 -2.3
v 1.8 2.7 -2.4
v 1.8 2.8 -1.7
v 1.8 2.8 -2.5
v 2.2 2.1 -1.2
v 2.2 2.1 -2.7
v 2.2 2.2 -1.2
v 2.2 2.2 -2.7
v 2.3 2.1 -1.1
v 2.3 2.1 -1.2
v 2.3 2.1 -2.7
v 2.3 2.1 -2.8
v 2.3 2.2 -1.1
v 2.3 2.2 -1.2
v 2.3 2.2 -2.7
v 2.3 2.2 -2.8
v 2.4 2 -1.3
v 2.4 2 -1.6
v 2.4 2 -2.3
v 2.4 2 -2.6
v 2.4 2.1 -1.3
v 2.4 2.1 -1.6
v 2.4 2.1 -2.3
v 2.4 2.1 -2.6
v 1.7 2 -1.3
v 1.7 2 -1.6
v 1.7 2 -2.3
v 1.7 2 -2.6
v 1.7 2.1 -1.3
v 1.7 2.1 -1.6
v 1.7 2.1 -2.3
v 1.7 2.1 -2.6
v 1.8 2.1 -1.1
v 1.8 2.1 -1.2
v 1.8 2.1 -2.7
v 1.8 2.1 -2.8
v 1.8 2.2 -1.1
v 1.8 2.2 -1.2
v 1.8 2.2 -2.7
v 1.8 2.2 -2.8
v 1.9 2.1 -1.2
v 1.9 2.1 -2.7
v 1.9 2.2 -1.2
v 1.9 2.2 -2.7
v 2.3 2.5 -1.7
v 2.3 2.5 -1.8
v 2.3 2.5 -2.2
v 2.3 2.5 -2.3
v 2.3 2.5 -2.4
v 2.3 2.5 -2.5
v 2.3 2.7 -1.8
v 2.3 2.7 -2.2
v 2.3 2.7 -2.3
v 2.3 2.7 -2.4
v 2.3 2.8 -1.7
v 2.3 2.8 -2.5
v 2.5 2 -1.3
v 2.5 2 -1.6
v 2.5 2 -2.3
v 2.5 2 -2.6
v 2.5 2.1 -1.1
v 2.5 2.1 -1.3
v 2.5 2.1 -1.4
v 2.5 2.1 -1.5
v 2.5 2.1 -1.6
v 2.5 2.1 -2.3
v 2.5 2.1 -2.4
v 2.5 2.1 -2.5
v 2.5 2.1 -2.6
v 2.5 2.1 -2.8
v 2.5 2.2 -1.1
v 2.5 2.2 -1.3
v 2.5 2.2 -1.4
v 2.5 2.2 -1.5
v 2.5 2.2 -1.6
v 2.5 2.2 -2.3
v 2.5 2.2 -2.4
v 2.5 2.2 -2.5
v 2.5 2.2 -2.6
v 2.5 2.2 -2.8
v 2.5 2.3 -1.1
v 2.5 2.3 -1.3
v 2.5 2.3 -1.6
v 2.5 2.3 -2.3
v 2.5 2.3 -2.6
v 2.5 2.3 -2.8
v 2.5 2.4 -1.8
v 2.5 2.4 -2
v 2.5 2.5 -1.1
v 2.5 2.5 -1.8
v 2.5 2.5 -2
v 2.5 2.5 -2.8
v 2.6 2.4 -1.8
v 2.6 2.4 -2
v 2.6 2.5 -1.8
v 2.6 2.5 -2
v 1.6 2.1 -1.1
v 1.6 2.2 -1.1
v 1.6 2.3 -1.1
v 1.6 2.5 -1.1
v 1.8 2.1 -1.1
v 1.8 2.2 -1.1
v 1.8 2.3 -1.1
v 1.8 2.4 -1.1
v 1.9 2.3 -1.1
v 1.9 2.4 -1.1
v 1.9 2.5 -1.1
v 2.2 2.3 -1.1
v 2.2 2.4 -1.1
v 2.2 2.5 -1.1
v 2.3 2.1 -1.1
v 2.3 2.2 -1.1
v 2.3 2.3 -1.1
v 2.3 2.4 -1.1
v 2.5 2.1 -1.1
v 2.5 2.2 -1.1
v 2.5 2.3 -1.1
v 2.5 2.5 -1.1
v 1.8 2.1 -1.2
v 1.8 2.2 -1.2
v 1.9 2.1 -1.2
v 1.9 2.2 -1.2
v 2.2 2.1 -1.2
v 2.2 2.2 -1.2
v 2.3 2.1 -1.2
v 2.3 2.2 -1.2
v 1.6 2 -1.3
v 1.6 2.1 -1.3
v 1.7 2 -1.3
v 1.7 2.1 -1.3
v 2.4 2 -1.3
v 2.4 2.1 -1.3
v 2.5 2 -1.3
v 2.5 2.1 -1.3
v 1.8 2.5 -1.7
v 1.8 2.8 -1.7
v 1.9 2.5 -1.7
v 1.9 2.7 -1.7
v 2.2 2.5 -1.7
v 2.2 2.7 -1.7
v 2.3 2.5 -1.7
v 2.3 2.8 -1.7
v 1.5 2.4 -1.8
v 1.5 2.5 -1.8
v 1.6 2.4 -1.8
v 1.6 2.5 -1.8
v 2.5 2.4 -1.8
v 2.5 2.5 -1.8
v 2.6 2.4 -1.8
v 2.6 2.5 -1.8
v 1.6 2 -2.3
v 1.6 2.1 -2.3
v 1.7 2 -2.3
v 1.7 2.1 -2.3
v 2.4 2 -2.3
v 2.4 2.1 -2.3
v 2.5 2 -2.3
v 2.5 2.1 -2.3
v 1.6 2 -1.6
v 1.6 2.1 -1.6
v 1.7 2 -1.6
v 1.7 2.1 -1.6
v 2.4 2 -1.6
v 2.4 2.1 -1.6
v 2.5 2 -1.6
v 2.5 2.1 -1.6
v 1.5 2.4 -2
v 1.5 2.5 -2
v 1.6 2.4 -2
v 1.6 2.5 -2
v 2.5 2.4 -2
v 2.5 2.5 -2
v 2.6 2.4 -2
v 2.6 2.5 -2
v 1.8 2.5 -2.5
v 1.8 2.8 -2.5
v 1.9 2.5 -2.5
v 2.2 2.5 -2.5
v 2.3 2.5 -2.5
v 2.3 2.8 -2.5
v 1.6 2 -2.6
v 1.6 2.1 -2.6
v 1.7 2 -2.6
v 1.7 2.1 -2.6
v 2.4 2 -2.6
v 2.4 2.1 -2.6
v 2.5 2 -2.6
v 2.5 2.1 -2.6
v 1.8 2.1 -2.7
v 1.8 2.2 -2.7
v 1.9 2.1 -2.7
v 1.9 2.2 -2.7
v 2.2 2.1 -2.7
v 2.2 2.2 -2.7
v 2.3 2.1 -2.7
v 2.3 2.2 -2.7
v 1.6 2.1 -2.8
v 1.6 2.2 -2.8
v 1.6 2.3 -2.8
v 1.6 2.5 -2.8
v 1.8 2.1 -2.8
v 1.8 2.2 -2.8
v 1.9 2.3 -2.8
v 1.9 2.5 -2.8
v 2.2 2.3 -2.8
v 2.2 2.5 -2.8
v 2.3 2.1 -2.8
v 2.3 2.2 -2.8
v 2.5 2.1 -2.8
v 2.5 2.2 -2.8
v 2.5 2.3 -2.8
v 2.5 2.5 -2.8
v 1.6 2 -1.3
v 1.7 2 -1.3
v 2.4 2 -1.3
v 2.5 2 -1.3
v 1.6 2 -1.6
v 1.7 2 -1.6
v 2.4 2 -1.6
v 2.5 2 -1.6
v 1.6 2 -2.3
v 1.7 2 -2.3
v 2.4 2 -2.3
v 2.5 2 -2.3
v 1.6 2 -2.6
v 1.7 2 -2.6
v 2.4 2 -2.6
v 2.5 2 -2.6
v 1.6 2.1 -1.1
v 1.8 2.1 -1.1
v 2.3 2.1 -1.1
v 2.5 2.1 -1.1
v 1.8 2.1 -1.2
v 1.9 2.1 -1.2
v 2.2 2.1 -1.2
v 2.3 2.1 -1.2
v 1.6 2.1 -1.3
v 1.7 2.1 -1.3
v 2.4 2.1 -1.3
v 2.5 2.1 -1.3
v 1.6 2.1 -1.6
v 1.7 2.1 -1.6
v 2.4 2.1 -1.6
v 2.5 2.1 -1.6
v 1.6 2.1 -2.3
v 1.7 2.1 -2.3
v 2.4 2.1 -2.3
v 2.5 2.1 -2.3
v 1.6 2.1 -2.6
v 1.7 2.1 -2.6
v 2.4 2.1 -2.6
v 2.5 2.1 -2.6
v 1.8 2.1 -2.7
v 1.9 2.1 -2.7
v 2.2 2.1 -2.7
v 2.3 2.1 -2.7
v 1.6 2.1 -2.8
v 1.8 2.1 -2.8
v 2.3 2.1 -2.8
v 2.5 2.1 -2.8
v 1.8 2.2 -1.1
v 2.3 2.2 -1.1
v 1.8 2.2 -1.2
v 1.9 2.2 -1.2
v 2.2 2.2 -1.2
v 2.3 2.2 -1.2
v 1.8 2.2 -2.7
v 1.9 2.2 -2.7
v 2.2 2.2 -2.7
v 2.3 2.2 -2.7
v 1.8 2.2 -2.8
v 2.3 2.2 -2.8
v 1.5 2.4 -1.8
v 1.6 2.4 -1.8
v 2.5 2.4 -1.8
v 2.6 2.4 -1.8
v 1.5 2.4 -2
v 1.6 2.4 -2
v 2.5 2.4 -2
v 2.6 2.4 -2
v 1.6 2.5 -1.1
v 1.9 2.5 -1.1
v 2.2 2.5 -1.1
v 2.5 2.5 -1.1
v 1.8 2.5 -1.7
v 1.9 2.5 -1.7
v 2.2 2.5 -1.7
v 2.3 2.5 -1.7
v 1.5 2.5 -1.8
v 1.6 2.5 -1.8
v 1.8 2.5 -1.8
v 2.3 2.5 -1.8
v 2.5 2.5 -1.8
v 2.6 2.5 -1.8
v 1.5 2.5 -2
v 1.6 2.5 -2
v 2.5 2.5 -2
v 2.6 2.5 -2
v 1.8 2.5 -2.2
v 2.3 2.5 -2.2
v 1.8 2.5 -2.3
v 2.3 2.5 -2.3
v 1.8 2.5 -2.4
v 2.3 2.5 -2.4
v 1.8 2.5 -2.5
v 1.9 2.5 -2.5
v 2.2 2.5 -2.5
v 2.3 2.5 -2.5
v 1.6 2.5 -2.8
v 1.9 2.5 -2.8
v 2.2 2.5 -2.8
v 2.5 2.5 -2.8
v 1.8 2.8 -1.7
v 2.3 2.8 -1.7
v 1.8 2.8 -2.5
v 2.3 2.8 -2.5

# faces
f 3/5/1 2/5/1 1/5/1
f 4/5/1 2/5/1 3/5/1
f 10/8/1 6/8/1 5/8/1
f 11/8/1 6/8/1 10/8/1
f 12/8/1 6/8/1 11/8/1
f 13/8/1 6/8/1 12/8/1
f 14/8/1 8/8/1 7/8/1
f 15/8/1 8/8/1 14/8/1
f 16/8/1 8/8/1 15/8/1
f 17/8/1 8/8/1 16/8/1
f 19/7/1 10/7/1 9/7/1
f 20/8/1 11/8/1 10/8/1
f 20/7/1 10/7/1 19/7/1
f 21/1/1 12/1/1 11/1/1
f 21/8/1 11/8/1 20/8/1
f 22/8/1 13/8/1 12/8/1
f 22/1/1 12/1/1 21/1/1
f 23/7/1 14/7/1 13/7/1
f 23/8/1 13/8/1 22/8/1
f 24/8/1 15/8/1 14/8/1
f 24/7/1 14/7/1 23/7/1
f 25/1/1 16/1/1 15/1/1
f 25/8/1 15/8/1 24/8/1
f 26/8/1 17/8/1 16/8/1
f 26/1/1 16/1/1 25/1/1
f 27/7/1 18/7/1 17/7/1
f 27/8/1 17/8/1 26/8/1
f 28/7/1 18/7/1 27/7/1
f 29/5/1 20/5/1 19/5/1
f 30/8/1 21/8/1 20/8/1
f 30/5/1 20/5/1 29/5/1
f 30/8/1 22/8/1 21/8/1
f 30/8/1 23/8/1 22/8/1
f 31/5/1 24/5/1 23/5/1
f 31/8/1 23/8/1 30/8/1
f 32/8/1 26/8/1 25/8/1
f 32/5/1 24/5/1 31/5/1
f 32/8/1 27/8/1 26/8/1
f 32/8/1 25/8/1 24/8/1
f 33/5/1 28/5/1 27/5/1
f 33/8/1 27/8/1 32/8/1
f 34/5/1 28/5/1 33/5/1
f 35/4/1 31/4/1 30/4/1
f 35/4/1 32/4/1 31/4/1
f 35/4/1 34/4/1 33/4/1
f 35/4/1 33/4/1 32/4/1
f 35/4/1 30/4/1 29/4/1
f 36/4/1 34/4/1 35/4/1
f 37/4/1 35/4/1 29/4/1
f 38/4/1 35/4/1 37/4/1
f 39/4/1 34/4/1 36/4/1
f 40/4/1 34/4/1 39/4/1
f 47/6/1 42/6/1 41/6/1
f 47/8/1 43/8/1 42/8/1
f 48/6/1 44/6/1 43/6/1
f 48/8/1 43/8/1 47/8/1
f 49/8/1 45/8/1 44/8/1
f 49/6/1 44/6/1 48/6/1
f 50/6/1 46/6/1 45/6/1
f 50/8/1 45/8/1 49/8/1
f 51/6/1 49/6/1 48/6/1
f 51/6/1 48/6/1 47/6/1
f 51/6/1 50/6/1 49/6/1
f 51/6/1 47/6/1 41/6/1
f 52/6/1 46/6/1 50/6/1
f 52/6/1 50/6/1 51/6/1
f 55/7/1 54/7/1 53/7/1
f 56/7/1 54/7/1 55/7/1
f 61/7/1 58/7/1 57/7/1
f 62/7/1 58/7/1 61/7/1
f 63/7/1 60/7/1 59/7/1
f 64/7/1 60/7/1 63/7/1
f 69/8/1 66/8/1 65/8/1
f 70/8/1 66/8/1 69/8/1
f 71/8/1 68/8/1 67/8/1
f 72/8/1 68/8/1 71/8/1
f 73/8/2 74/8/2 77/8/2
f 77/8/2 74/8/2 78/8/2
f 75/8/2 76/8/2 79/8/2
f 79/8/2 76/8/2 80/8/2
f 81/7/2 82/7/2 85/7/2
f 85/7/2 82/7/2 86/7/2
f 83/7/2 84/7/2 87/7/2
f 87/7/2 84/7/2 88/7/2
f 89/7/2 90/7/2 91/7/2
f 91/7/2 90/7/2 92/7/2
f 93/6/2 94/6/2 99/6/2
f 94/8/2 95/8/2 99/8/2
f 95/6/2 96/6/2 100/6/2
f 99/8/2 95/8/2 100/8/2
f 96/8/2 97/8/2 101/8/2
f 100/6/2 96/6/2 101/6/2
f 97/6/2 98/6/2 102/6/2
f 101/8/2 97/8/2 102/8/2
f 100/6/2 101/6/2 103/6/2
f 99/6/2 100/6/2 103/6/2
f 101/6/2 102/6/2 103/6/2
f 93/6/2 99/6/2 103/6/2
f 102/6/2 98/6/2 104/6/2
f 103/6/2 102/6/2 104/6/2
f 105/8/2 106/8/2 110/8/2
f 110/8/2 106/8/2 111/8/2
f 111/8/2 106/8/2 112/8/2
f 112/8/2 106/8/2 113/8/2
f 107/8/2 108/8/2 114/8/2
f 114/8/2 108/8/2 115/8/2
f 115/8/2 108/8/2 116/8/2
f 116/8/2 108/8/2 117/8/2
f 109/7/2 110/7/2 119/7/2
f 110/8/2 111/8/2 120/8/2
f 119/7/2 110/7/2 120/7/2
f 111/1/2 112/1/2 121/1/2
f 120/8/2 111/8/2 121/8/2
f 112/8/2 113/8/2 122/8/2
f 121/1/2 112/1/2 122/1/2
f 113/7/2 114/7/2 123/7/2
f 122/8/2 113/8/2 123/8/2
f 114/8/2 115/8/2 124/8/2
f 123/7/2 114/7/2 124/7/2
f 115/1/2 116/1/2 125/1/2
f 124/8/2 115/8/2 125/8/2
f 116/8/2 117/8/2 126/8/2
f 125/1/2 116/1/2 126/1/2
f 117/7/2 118/7/2 127/7/2
f 126/8/2 117/8/2 127/8/2
f 127/7/2 118/7/2 128/7/2
f 119/5/2 120/5/2 129/5/2
f 120/8/2 121/8/2 130/8/2
f 129/5/2 120/5/2 130/5/2
f 121/8/2 122/8/2 130/8/2
f 122/8/2 123/8/2 130/8/2
f 123/5/2 124/5/2 131/5/2
f 130/8/2 123/8/2 131/8/2
f 125/8/2 126/8/2 132/8/2
f 131/5/2 124/5/2 132/5/2
f 126/8/2 127/8/2 132/8/2
f 124/8/2 125/8/2 132/8/2
f 127/5/2 128/5/2 133/5/2
f 132/8/2 127/8/2 133/8/2
f 133/5/2 128/5/2 134/5/2
f 130/4/2 131/4/2 135/4/2
f 131/4/2 132/4/2 135/4/2
f 133/4/2 134/4/2 135/4/2
f 132/4/2 133/4/2 135/4/2
f 129/4/2 130/4/2 135/4/2
f 135/4/2 134/4/2 136/4/2
f 129/4/2 135/4/2 137/4/2
f 137/4/2 135/4/2 138/4/2
f 136/4/2 134/4/2 139/4/2
f 139/4/2 134/4/2 140/4/2
f 141/5/2 142/5/2 143/5/2
f 143/5/2 142/5/2 144/5/2
f 149/7/3 146/7/3 145/7/3
f 150/5/3 147/5/3 146/5/3
f 150/7/3 146/7/3 149/7/3
f 151/4/3 148/4/3 147/4/3
f 151/5/3 147/5/3 150/5/3
f 152/4/3 148/4/3 151/4/3
f 153/5/3 151/5/3 150/5/3
f 153/6/3 152/6/3 151/6/3
f 154/4/3 148/4/3 152/4/3
f 154/6/3 152/6/3 153/6/3
f 155/4/3 148/4/3 154/4/3
f 156/5/3 153/5/3 150/5/3
f 156/5/3 154/5/3 153/5/3
f 156/5/3 155/5/3 154/5/3
f 157/5/3 155/5/3 156/5/3
f 158/5/3 155/5/3 157/5/3
f 160/5/3 156/5/3 150/5/3
f 161/6/3 157/6/3 156/6/3
f 161/5/3 156/5/3 160/5/3
f 162/4/3 158/4/3 157/4/3
f 162/6/3 157/6/3 161/6/3
f 163/7/3 160/7/3 159/7/3
f 164/5/3 161/5/3 160/5/3
f 164/7/3 160/7/3 163/7/3
f 165/4/3 162/4/3 161/4/3
f 165/5/3 161/5/3 164/5/3
f 166/4/3 158/4/3 162/4/3
f 166/4/3 162/4/3 165/4/3
f 169/7/3 168/7/3 167/7/3
f 170/7/3 168/7/3 169/7/3
f 173/7/3 172/7/3 171/7/3
f 174/7/3 172/7/3 173/7/3
f 177/8/3 176/8/3 175/8/3
f 178/8/3 176/8/3 177/8/3
f 181/8/3 180/8/3 179/8/3
f 182/8/3 180/8/3 181/8/3
f 185/6/3 184/6/3 183/6/3
f 186/6/3 184/6/3 185/6/3
f 187/8/3 186/8/3 185/8/3
f 188/6/3 184/6/3 186/6/3
f 188/8/3 186/8/3 187/8/3
f 189/6/3 188/6/3 187/6/3
f 190/6/3 184/6/3 188/6/3
f 190/6/3 188/6/3 189/6/3
f 193/5/3 192/5/3 191/5/3
f 194/5/3 192/5/3 193/5/3
f 197/5/3 196/5/3 195/5/3
f 198/5/3 196/5/3 197/5/3
f 201/8/3 200/8/3 199/8/3
f 202/8/3 200/8/3 201/8/3
f 205/8/3 204/8/3 203/8/3
f 206/8/3 204/8/3 205/8/3
f 207/8/4 208/8/4 209/8/4
f 209/8/4 208/8/4 210/8/4
f 211/8/4 212/8/4 213/8/4
f 213/8/4 212/8/4 214/8/4
f 215/5/4 216/5/4 217/5/4
f 217/5/4 216/5/4 218/5/4
f 219/5/4 220/5/4 221/5/4
f 221/5/4 220/5/4 222/5/4
f 223/6/4 224/6/4 225/6/4
f 225/6/4 224/6/4 226/6/4
f 226/6/4 224/6/4 227/6/4
f 227/6/4 224/6/4 228/6/4
f 229/8/4 230/8/4 231/8/4
f 231/8/4 230/8/4 232/8/4
f 233/8/4 234/8/4 235/8/4
f 235/8/4 234/8/4 236/8/4
f 237/7/4 238/7/4 239/7/4
f 239/7/4 238/7/4 240/7/4
f 241/7/4 242/7/4 243/7/4
f 243/7/4 242/7/4 244/7/4
f 245/7/4 246/7/4 249/7/4
f 246/5/4 247/5/4 250/5/4
f 249/7/4 246/7/4 250/7/4
f 247/4/4 248/4/4 251/4/4
f 250/5/4 247/5/4 251/5/4
f 251/4/4 248/4/4 252/4/4
f 250/5/4 251/5/4 253/5/4
f 251/5/4 252/5/4 253/5/4
f 253/5/4 252/5/4 254/5/4
f 250/5/4 253/5/4 256/5/4
f 255/7/4 256/7/4 257/7/4
f 256/5/4 253/5/4 258/5/4
f 257/7/4 256/7/4 258/7/4
f 253/4/4 254/4/4 259/4/4
f 258/5/4 253/5/4 259/5/4
f 259/4/4 254/4/4 260/4/4
f 265/8/5 262/8/5 261/8/5
f 266/8/5 262/8/5 265/8/5
f 267/8/5 264/8/5 263/8/5
f 268/8/5 264/8/5 267/8/5
f 273/8/5 270/8/5 269/8/5
f 274/8/5 270/8/5 273/8/5
f 275/8/5 272/8/5 271/8/5
f 276/8/5 272/8/5 275/8/5
f 281/7/5 278/7/5 277/7/5
f 284/7/5 280/7/5 279/7/5
f 285/7/5 282/7/5 281/7/5
f 285/7/5 281/7/5 277/7/5
f 286/7/5 282/7/5 285/7/5
f 287/7/5 284/7/5 283/7/5
f 287/7/5 280/7/5 284/7/5
f 288/7/5 280/7/5 287/7/5
f 290/7/5 282/7/5 286/7/5
f 291/7/5 287/7/5 283/7/5
f 293/7/5 290/7/5 289/7/5
f 294/7/5 282/7/5 290/7/5
f 294/7/5 290/7/5 293/7/5
f 295/7/5 292/7/5 291/7/5
f 295/7/5 291/7/5 283/7/5
f 296/7/5 292/7/5 295/7/5
f 298/7/5 282/7/5 294/7/5
f 299/7/5 295/7/5 283/7/5
f 301/7/5 298/7/5 297/7/5
f 301/7/5 282/7/5 298/7/5
f 302/7/5 282/7/5 301/7/5
f 303/7/5 300/7/5 299/7/5
f 303/7/5 299/7/5 283/7/5
f 304/7/5 300/7/5 303/7/5
f 305/7/5 301/7/5 297/7/5
f 306/7/5 301/7/5 305/7/5
f 307/7/5 300/7/5 304/7/5
f 308/7/5 300/7/5 307/7/5
f 311/5/5 310/5/5 309/5/5
f 312/5/5 310/5/5 311/5/5
f 313/5/5 310/5/5 312/5/5
f 314/5/5 310/5/5 313/5/5
f 316/5/5 313/5/5 312/5/5
f 317/5/5 313/5/5 316/5/5
f 319/5/5 316/5/5 315/5/5
f 319/5/5 318/5/5 317/5/5
f 319/5/5 317/5/5 316/5/5
f 320/5/5 318/5/5 319/5/5
f 325/5/5 322/5/5 321/5/5
f 326/5/5 322/5/5 325/5/5
f 327/5/5 324/5/5 323/5/5
f 328/5/5 324/5/5 327/5/5
f 329/4/6 330/4/6 333/4/6
f 330/5/6 331/5/6 334/5/6
f 333/4/6 330/4/6 334/4/6
f 331/4/6 332/4/6 335/4/6
f 334/5/6 331/5/6 335/5/6
f 335/4/6 332/4/6 336/4/6
f 329/4/6 333/4/6 338/4/6
f 338/4/6 333/4/6 339/4/6
f 336/4/6 332/4/6 340/4/6
f 340/4/6 332/4/6 341/4/6
f 337/5/6 338/5/6 343/5/6
f 338/4/6 339/4/6 344/4/6
f 343/5/6 338/5/6 344/5/6
f 341/5/6 342/5/6 345/5/6
f 340/4/6 341/4/6 345/4/6
f 345/5/6 342/5/6 346/5/6
f 344/4/6 339/4/6 347/4/6
f 340/4/6 345/4/6 348/4/6
f 344/4/6 347/4/6 349/4/6
f 348/4/6 345/4/6 350/4/6
f 344/4/6 349/4/6 351/4/6
f 350/4/6 345/4/6 352/4/6
f 344/4/6 351/4/6 353/4/6
f 352/4/6 345/4/6 356/4/6
f 344/4/6 353/4/6 357/4/6
f 353/4/6 354/4/6 357/4/6
f 354/5/6 355/5/6 358/5/6
f 357/4/6 354/4/6 358/4/6
f 355/4/6 356/4/6 359/4/6
f 358/5/6 355/5/6 359/5/6
f 356/4/6 345/4/6 360/4/6
f 359/4/6 356/4/6 360/4/6
f 361/6/6 362/6/6 363/6/6
f 363/6/6 362/6/6 364/6/6
