# MagicaVoxel @ Ephtracy

# group
o 

# material
mtllib traintracks(nolight).mtl
usemtl palette

# normals
vn -1 0 0
vn 1 0 0
vn 0 0 1
vn 0 0 -1
vn 0 -1 0
vn 0 1 0

# texcoords
vt 0.533203 0.5
vt 0.978516 0.5
vt 0.982422 0.5

# verts
v 1.4 2 0
v 1.4 2 -4
v 1.4 2.1 0
v 1.4 2.1 -0.1
v 1.4 2.1 -0.2
v 1.4 2.1 -0.8
v 1.4 2.1 -0.9
v 1.4 2.1 -1.5
v 1.4 2.1 -1.6
v 1.4 2.1 -2.2
v 1.4 2.1 -2.3
v 1.4 2.1 -2.9
v 1.4 2.1 -3
v 1.4 2.1 -3.5
v 1.4 2.1 -3.6
v 1.4 2.1 -4
v 1.4 2.2 -0.1
v 1.4 2.2 -0.2
v 1.4 2.2 -0.8
v 1.4 2.2 -0.9
v 1.4 2.2 -1.5
v 1.4 2.2 -1.6
v 1.4 2.2 -2.2
v 1.4 2.2 -2.3
v 1.4 2.2 -2.9
v 1.4 2.2 -3
v 1.4 2.2 -3.5
v 1.4 2.2 -3.6
v 1.5 2.1 0
v 1.5 2.1 -0.1
v 1.5 2.1 -0.2
v 1.5 2.1 -0.8
v 1.5 2.1 -0.9
v 1.5 2.1 -1.5
v 1.5 2.1 -1.6
v 1.5 2.1 -2.2
v 1.5 2.1 -2.3
v 1.5 2.1 -2.9
v 1.5 2.1 -3
v 1.5 2.1 -3.5
v 1.5 2.1 -3.6
v 1.5 2.1 -4
v 1.5 2.2 0
v 1.5 2.2 -0.1
v 1.5 2.2 -0.2
v 1.5 2.2 -0.8
v 1.5 2.2 -0.9
v 1.5 2.2 -1.5
v 1.5 2.2 -1.6
v 1.5 2.2 -2.2
v 1.5 2.2 -2.3
v 1.5 2.2 -2.9
v 1.5 2.2 -3
v 1.5 2.2 -3.5
v 1.5 2.2 -3.6
v 1.5 2.2 -4
v 2.3 2.1 0
v 2.3 2.1 -0.1
v 2.3 2.1 -0.2
v 2.3 2.1 -0.8
v 2.3 2.1 -0.9
v 2.3 2.1 -1.5
v 2.3 2.1 -1.6
v 2.3 2.1 -2.2
v 2.3 2.1 -2.3
v 2.3 2.1 -2.9
v 2.3 2.1 -3
v 2.3 2.1 -3.5
v 2.3 2.1 -3.6
v 2.3 2.1 -4
v 2.3 2.2 0
v 2.3 2.2 -0.1
v 2.3 2.2 -0.2
v 2.3 2.2 -0.8
v 2.3 2.2 -0.9
v 2.3 2.2 -1.5
v 2.3 2.2 -1.6
v 2.3 2.2 -2.2
v 2.3 2.2 -2.3
v 2.3 2.2 -2.9
v 2.3 2.2 -3
v 2.3 2.2 -3.5
v 2.3 2.2 -3.6
v 2.3 2.2 -4
v 1.6 2.1 0
v 1.6 2.1 -0.1
v 1.6 2.1 -0.2
v 1.6 2.1 -0.8
v 1.6 2.1 -0.9
v 1.6 2.1 -1.5
v 1.6 2.1 -1.6
v 1.6 2.1 -2.2
v 1.6 2.1 -2.3
v 1.6 2.1 -2.9
v 1.6 2.1 -3
v 1.6 2.1 -3.5
v 1.6 2.1 -3.6
v 1.6 2.1 -4
v 1.6 2.2 0
v 1.6 2.2 -0.1
v 1.6 2.2 -0.2
v 1.6 2.2 -0.8
v 1.6 2.2 -0.9
v 1.6 2.2 -1.5
v 1.6 2.2 -1.6
v 1.6 2.2 -2.2
v 1.6 2.2 -2.3
v 1.6 2.2 -2.9
v 1.6 2.2 -3
v 1.6 2.2 -3.5
v 1.6 2.2 -3.6
v 1.6 2.2 -4
v 2.4 2.1 0
v 2.4 2.1 -0.1
v 2.4 2.1 -0.2
v 2.4 2.1 -0.8
v 2.4 2.1 -0.9
v 2.4 2.1 -1.5
v 2.4 2.1 -1.6
v 2.4 2.1 -2.9
v 2.4 2.1 -3
v 2.4 2.1 -3.5
v 2.4 2.1 -3.6
v 2.4 2.1 -4
v 2.4 2.2 0
v 2.4 2.2 -0.1
v 2.4 2.2 -0.2
v 2.4 2.2 -0.8
v 2.4 2.2 -0.9
v 2.4 2.2 -1.5
v 2.4 2.2 -1.6
v 2.4 2.2 -2.9
v 2.4 2.2 -3
v 2.4 2.2 -3.5
v 2.4 2.2 -3.6
v 2.4 2.2 -4
v 2.5 2 0
v 2.5 2 -4
v 2.5 2.1 0
v 2.5 2.1 -0.1
v 2.5 2.1 -0.2
v 2.5 2.1 -0.8
v 2.5 2.1 -0.9
v 2.5 2.1 -1.5
v 2.5 2.1 -1.6
v 2.5 2.1 -2.9
v 2.5 2.1 -3
v 2.5 2.1 -3.5
v 2.5 2.1 -3.6
v 2.5 2.1 -4
v 2.5 2.2 -0.1
v 2.5 2.2 -0.2
v 2.5 2.2 -0.8
v 2.5 2.2 -0.9
v 2.5 2.2 -1.5
v 2.5 2.2 -1.6
v 2.5 2.2 -2.9
v 2.5 2.2 -3
v 2.5 2.2 -3.5
v 2.5 2.2 -3.6
v 1.4 2 0
v 1.4 2.1 0
v 1.5 2.1 0
v 1.5 2.2 0
v 1.6 2.1 0
v 1.6 2.2 0
v 2.3 2.1 0
v 2.3 2.2 0
v 2.4 2.1 0
v 2.4 2.2 0
v 2.5 2 0
v 2.5 2.1 0
v 1.4 2.1 -0.1
v 1.4 2.2 -0.1
v 1.5 2.1 -0.1
v 1.5 2.2 -0.1
v 1.6 2.1 -0.1
v 1.6 2.2 -0.1
v 2.3 2.1 -0.1
v 2.3 2.2 -0.1
v 2.4 2.1 -0.1
v 2.4 2.2 -0.1
v 2.5 2.1 -0.1
v 2.5 2.2 -0.1
v 1.4 2.1 -0.8
v 1.4 2.2 -0.8
v 1.5 2.1 -0.8
v 1.5 2.2 -0.8
v 1.6 2.1 -0.8
v 1.6 2.2 -0.8
v 2.3 2.1 -0.8
v 2.3 2.2 -0.8
v 2.4 2.1 -0.8
v 2.4 2.2 -0.8
v 2.5 2.1 -0.8
v 2.5 2.2 -0.8
v 1.4 2.1 -1.5
v 1.4 2.2 -1.5
v 1.5 2.1 -1.5
v 1.5 2.2 -1.5
v 1.6 2.1 -1.5
v 1.6 2.2 -1.5
v 2.3 2.1 -1.5
v 2.3 2.2 -1.5
v 2.4 2.1 -1.5
v 2.4 2.2 -1.5
v 2.5 2.1 -1.5
v 2.5 2.2 -1.5
v 1.4 2.1 -2.2
v 1.4 2.2 -2.2
v 1.5 2.1 -2.2
v 1.5 2.2 -2.2
v 1.6 2.1 -2.2
v 1.6 2.2 -2.2
v 2.3 2.1 -2.2
v 2.3 2.2 -2.2
v 1.4 2.1 -2.9
v 1.4 2.2 -2.9
v 1.5 2.1 -2.9
v 1.5 2.2 -2.9
v 1.6 2.1 -2.9
v 1.6 2.2 -2.9
v 2.3 2.1 -2.9
v 2.3 2.2 -2.9
v 2.4 2.1 -2.9
v 2.4 2.2 -2.9
v 2.5 2.1 -2.9
v 2.5 2.2 -2.9
v 1.4 2.1 -3.5
v 1.4 2.2 -3.5
v 1.5 2.1 -3.5
v 1.5 2.2 -3.5
v 1.6 2.1 -3.5
v 1.6 2.2 -3.5
v 2.3 2.1 -3.5
v 2.3 2.2 -3.5
v 2.4 2.1 -3.5
v 2.4 2.2 -3.5
v 2.5 2.1 -3.5
v 2.5 2.2 -3.5
v 1.4 2.1 -0.2
v 1.4 2.2 -0.2
v 1.5 2.1 -0.2
v 1.5 2.2 -0.2
v 1.6 2.1 -0.2
v 1.6 2.2 -0.2
v 2.3 2.1 -0.2
v 2.3 2.2 -0.2
v 2.4 2.1 -0.2
v 2.4 2.2 -0.2
v 2.5 2.1 -0.2
v 2.5 2.2 -0.2
v 1.4 2.1 -0.9
v 1.4 2.2 -0.9
v 1.5 2.1 -0.9
v 1.5 2.2 -0.9
v 1.6 2.1 -0.9
v 1.6 2.2 -0.9
v 2.3 2.1 -0.9
v 2.3 2.2 -0.9
v 2.4 2.1 -0.9
v 2.4 2.2 -0.9
v 2.5 2.1 -0.9
v 2.5 2.2 -0.9
v 1.4 2.1 -1.6
v 1.4 2.2 -1.6
v 1.5 2.1 -1.6
v 1.5 2.2 -1.6
v 1.6 2.1 -1.6
v 1.6 2.2 -1.6
v 2.3 2.1 -1.6
v 2.3 2.2 -1.6
v 2.4 2.1 -1.6
v 2.4 2.2 -1.6
v 2.5 2.1 -1.6
v 2.5 2.2 -1.6
v 1.4 2.1 -2.3
v 1.4 2.2 -2.3
v 1.5 2.1 -2.3
v 1.5 2.2 -2.3
v 1.6 2.1 -2.3
v 1.6 2.2 -2.3
v 2.3 2.1 -2.3
v 2.3 2.2 -2.3
v 1.4 2.1 -3
v 1.4 2.2 -3
v 1.5 2.1 -3
v 1.5 2.2 -3
v 1.6 2.1 -3
v 1.6 2.2 -3
v 2.3 2.1 -3
v 2.3 2.2 -3
v 2.4 2.1 -3
v 2.4 2.2 -3
v 2.5 2.1 -3
v 2.5 2.2 -3
v 1.4 2.1 -3.6
v 1.4 2.2 -3.6
v 1.5 2.1 -3.6
v 1.5 2.2 -3.6
v 1.6 2.1 -3.6
v 1.6 2.2 -3.6
v 2.3 2.1 -3.6
v 2.3 2.2 -3.6
v 2.4 2.1 -3.6
v 2.4 2.2 -3.6
v 2.5 2.1 -3.6
v 2.5 2.2 -3.6
v 1.4 2 -4
v 1.4 2.1 -4
v 1.5 2.1 -4
v 1.5 2.2 -4
v 1.6 2.1 -4
v 1.6 2.2 -4
v 2.3 2.1 -4
v 2.3 2.2 -4
v 2.4 2.1 -4
v 2.4 2.2 -4
v 2.5 2 -4
v 2.5 2.1 -4
v 1.4 2 0
v 2.5 2 0
v 1.4 2 -4
v 2.5 2 -4
v 1.4 2.1 0
v 1.5 2.1 0
v 1.6 2.1 0
v 2.3 2.1 0
v 2.4 2.1 0
v 2.5 2.1 0
v 1.4 2.1 -0.1
v 1.5 2.1 -0.1
v 1.6 2.1 -0.1
v 2.3 2.1 -0.1
v 2.4 2.1 -0.1
v 2.5 2.1 -0.1
v 1.4 2.1 -0.2
v 1.5 2.1 -0.2
v 1.6 2.1 -0.2
v 2.3 2.1 -0.2
v 2.4 2.1 -0.2
v 2.5 2.1 -0.2
v 1.4 2.1 -0.8
v 1.5 2.1 -0.8
v 1.6 2.1 -0.8
v 2.3 2.1 -0.8
v 2.4 2.1 -0.8
v 2.5 2.1 -0.8
v 1.4 2.1 -0.9
v 1.5 2.1 -0.9
v 1.6 2.1 -0.9
v 2.3 2.1 -0.9
v 2.4 2.1 -0.9
v 2.5 2.1 -0.9
v 1.4 2.1 -1.5
v 1.5 2.1 -1.5
v 1.6 2.1 -1.5
v 2.3 2.1 -1.5
v 2.4 2.1 -1.5
v 2.5 2.1 -1.5
v 1.4 2.1 -1.6
v 1.5 2.1 -1.6
v 1.6 2.1 -1.6
v 2.3 2.1 -1.6
v 2.4 2.1 -1.6
v 2.5 2.1 -1.6
v 1.4 2.1 -2.2
v 1.5 2.1 -2.2
v 1.6 2.1 -2.2
v 2.3 2.1 -2.2
v 1.4 2.1 -2.3
v 1.5 2.1 -2.3
v 1.6 2.1 -2.3
v 2.3 2.1 -2.3
v 1.4 2.1 -2.9
v 1.5 2.1 -2.9
v 1.6 2.1 -2.9
v 2.3 2.1 -2.9
v 2.4 2.1 -2.9
v 2.5 2.1 -2.9
v 1.4 2.1 -3
v 1.5 2.1 -3
v 1.6 2.1 -3
v 2.3 2.1 -3
v 2.4 2.1 -3
v 2.5 2.1 -3
v 1.4 2.1 -3.5
v 1.5 2.1 -3.5
v 1.6 2.1 -3.5
v 2.3 2.1 -3.5
v 2.4 2.1 -3.5
v 2.5 2.1 -3.5
v 1.4 2.1 -3.6
v 1.5 2.1 -3.6
v 1.6 2.1 -3.6
v 2.3 2.1 -3.6
v 2.4 2.1 -3.6
v 2.5 2.1 -3.6
v 1.4 2.1 -4
v 1.5 2.1 -4
v 1.6 2.1 -4
v 2.3 2.1 -4
v 2.4 2.1 -4
v 2.5 2.1 -4
v 1.5 2.2 0
v 1.6 2.2 0
v 2.3 2.2 0
v 2.4 2.2 0
v 1.4 2.2 -0.1
v 1.5 2.2 -0.1
v 1.6 2.2 -0.1
v 2.3 2.2 -0.1
v 2.4 2.2 -0.1
v 2.5 2.2 -0.1
v 1.4 2.2 -0.2
v 1.5 2.2 -0.2
v 1.6 2.2 -0.2
v 2.3 2.2 -0.2
v 2.4 2.2 -0.2
v 2.5 2.2 -0.2
v 1.4 2.2 -0.8
v 1.5 2.2 -0.8
v 1.6 2.2 -0.8
v 2.3 2.2 -0.8
v 2.4 2.2 -0.8
v 2.5 2.2 -0.8
v 1.4 2.2 -0.9
v 1.5 2.2 -0.9
v 1.6 2.2 -0.9
v 2.3 2.2 -0.9
v 2.4 2.2 -0.9
v 2.5 2.2 -0.9
v 1.4 2.2 -1.5
v 1.5 2.2 -1.5
v 1.6 2.2 -1.5
v 2.3 2.2 -1.5
v 2.4 2.2 -1.5
v 2.5 2.2 -1.5
v 1.4 2.2 -1.6
v 1.5 2.2 -1.6
v 1.6 2.2 -1.6
v 2.3 2.2 -1.6
v 2.4 2.2 -1.6
v 2.5 2.2 -1.6
v 1.4 2.2 -2.2
v 1.5 2.2 -2.2
v 1.6 2.2 -2.2
v 2.3 2.2 -2.2
v 1.4 2.2 -2.3
v 1.5 2.2 -2.3
v 1.6 2.2 -2.3
v 2.3 2.2 -2.3
v 1.4 2.2 -2.9
v 1.5 2.2 -2.9
v 1.6 2.2 -2.9
v 2.3 2.2 -2.9
v 2.4 2.2 -2.9
v 2.5 2.2 -2.9
v 1.4 2.2 -3
v 1.5 2.2 -3
v 1.6 2.2 -3
v 2.3 2.2 -3
v 2.4 2.2 -3
v 2.5 2.2 -3
v 1.4 2.2 -3.5
v 1.5 2.2 -3.5
v 1.6 2.2 -3.5
v 2.3 2.2 -3.5
v 2.4 2.2 -3.5
v 2.5 2.2 -3.5
v 1.4 2.2 -3.6
v 1.5 2.2 -3.6
v 1.6 2.2 -3.6
v 2.3 2.2 -3.6
v 2.4 2.2 -3.6
v 2.5 2.2 -3.6
v 1.5 2.2 -4
v 1.6 2.2 -4
v 2.3 2.2 -4
v 2.4 2.2 -4

# faces
f 3/3/1 2/3/1 1/3/1
f 4/3/1 2/3/1 3/3/1
f 5/3/1 2/3/1 4/3/1
f 6/3/1 2/3/1 5/3/1
f 7/3/1 2/3/1 6/3/1
f 8/3/1 2/3/1 7/3/1
f 9/3/1 2/3/1 8/3/1
f 10/3/1 2/3/1 9/3/1
f 11/3/1 2/3/1 10/3/1
f 12/3/1 2/3/1 11/3/1
f 13/3/1 2/3/1 12/3/1
f 14/3/1 2/3/1 13/3/1
f 15/3/1 2/3/1 14/3/1
f 16/3/1 2/3/1 15/3/1
f 17/1/1 5/1/1 4/1/1
f 18/1/1 5/1/1 17/1/1
f 19/1/1 7/1/1 6/1/1
f 20/1/1 7/1/1 19/1/1
f 21/1/1 9/1/1 8/1/1
f 22/1/1 9/1/1 21/1/1
f 23/1/1 11/1/1 10/1/1
f 24/1/1 11/1/1 23/1/1
f 25/1/1 13/1/1 12/1/1
f 26/1/1 13/1/1 25/1/1
f 27/1/1 15/1/1 14/1/1
f 28/1/1 15/1/1 27/1/1
f 43/2/1 30/2/1 29/2/1
f 44/2/1 30/2/1 43/2/1
f 45/2/1 32/2/1 31/2/1
f 46/2/1 32/2/1 45/2/1
f 47/2/1 34/2/1 33/2/1
f 48/2/1 34/2/1 47/2/1
f 49/2/1 36/2/1 35/2/1
f 50/2/1 36/2/1 49/2/1
f 51/2/1 38/2/1 37/2/1
f 52/2/1 38/2/1 51/2/1
f 53/2/1 40/2/1 39/2/1
f 54/2/1 40/2/1 53/2/1
f 55/2/1 42/2/1 41/2/1
f 56/2/1 42/2/1 55/2/1
f 71/2/1 58/2/1 57/2/1
f 72/2/1 58/2/1 71/2/1
f 73/2/1 60/2/1 59/2/1
f 74/2/1 60/2/1 73/2/1
f 75/2/1 62/2/1 61/2/1
f 76/2/1 62/2/1 75/2/1
f 77/2/1 64/2/1 63/2/1
f 78/2/1 64/2/1 77/2/1
f 79/2/1 66/2/1 65/2/1
f 80/2/1 66/2/1 79/2/1
f 81/2/1 68/2/1 67/2/1
f 82/2/1 68/2/1 81/2/1
f 83/2/1 70/2/1 69/2/1
f 84/2/1 70/2/1 83/2/1
f 85/2/2 86/2/2 99/2/2
f 99/2/2 86/2/2 100/2/2
f 87/2/2 88/2/2 101/2/2
f 101/2/2 88/2/2 102/2/2
f 89/2/2 90/2/2 103/2/2
f 103/2/2 90/2/2 104/2/2
f 91/2/2 92/2/2 105/2/2
f 105/2/2 92/2/2 106/2/2
f 93/2/2 94/2/2 107/2/2
f 107/2/2 94/2/2 108/2/2
f 95/2/2 96/2/2 109/2/2
f 109/2/2 96/2/2 110/2/2
f 97/2/2 98/2/2 111/2/2
f 111/2/2 98/2/2 112/2/2
f 113/2/2 114/2/2 125/2/2
f 125/2/2 114/2/2 126/2/2
f 115/2/2 116/2/2 127/2/2
f 127/2/2 116/2/2 128/2/2
f 117/2/2 118/2/2 129/2/2
f 129/2/2 118/2/2 130/2/2
f 119/2/2 120/2/2 131/2/2
f 131/2/2 120/2/2 132/2/2
f 121/2/2 122/2/2 133/2/2
f 133/2/2 122/2/2 134/2/2
f 123/2/2 124/2/2 135/2/2
f 135/2/2 124/2/2 136/2/2
f 137/3/2 138/3/2 139/3/2
f 139/3/2 138/3/2 140/3/2
f 140/3/2 138/3/2 141/3/2
f 141/3/2 138/3/2 142/3/2
f 142/3/2 138/3/2 143/3/2
f 143/3/2 138/3/2 144/3/2
f 144/3/2 138/3/2 145/3/2
f 145/3/2 138/3/2 146/3/2
f 146/3/2 138/3/2 147/3/2
f 147/3/2 138/3/2 148/3/2
f 148/3/2 138/3/2 149/3/2
f 149/3/2 138/3/2 150/3/2
f 140/1/2 141/1/2 151/1/2
f 151/1/2 141/1/2 152/1/2
f 142/1/2 143/1/2 153/1/2
f 153/1/2 143/1/2 154/1/2
f 144/1/2 145/1/2 155/1/2
f 155/1/2 145/1/2 156/1/2
f 146/1/2 147/1/2 157/1/2
f 157/1/2 147/1/2 158/1/2
f 148/1/2 149/1/2 159/1/2
f 159/1/2 149/1/2 160/1/2
f 163/3/3 162/3/3 161/3/3
f 165/3/3 163/3/3 161/3/3
f 165/2/3 164/2/3 163/2/3
f 166/2/3 164/2/3 165/2/3
f 167/3/3 165/3/3 161/3/3
f 169/3/3 167/3/3 161/3/3
f 169/2/3 168/2/3 167/2/3
f 170/2/3 168/2/3 169/2/3
f 171/3/3 169/3/3 161/3/3
f 172/3/3 169/3/3 171/3/3
f 175/1/3 174/1/3 173/1/3
f 176/1/3 174/1/3 175/1/3
f 179/1/3 178/1/3 177/1/3
f 180/1/3 178/1/3 179/1/3
f 183/1/3 182/1/3 181/1/3
f 184/1/3 182/1/3 183/1/3
f 187/1/3 186/1/3 185/1/3
f 188/1/3 186/1/3 187/1/3
f 191/1/3 190/1/3 189/1/3
f 192/1/3 190/1/3 191/1/3
f 195/1/3 194/1/3 193/1/3
f 196/1/3 194/1/3 195/1/3
f 199/1/3 198/1/3 197/1/3
f 200/1/3 198/1/3 199/1/3
f 203/1/3 202/1/3 201/1/3
f 204/1/3 202/1/3 203/1/3
f 207/1/3 206/1/3 205/1/3
f 208/1/3 206/1/3 207/1/3
f 211/1/3 210/1/3 209/1/3
f 212/1/3 210/1/3 211/1/3
f 215/1/3 214/1/3 213/1/3
f 216/1/3 214/1/3 215/1/3
f 219/1/3 218/1/3 217/1/3
f 220/1/3 218/1/3 219/1/3
f 223/1/3 222/1/3 221/1/3
f 224/1/3 222/1/3 223/1/3
f 227/1/3 226/1/3 225/1/3
f 228/1/3 226/1/3 227/1/3
f 231/1/3 230/1/3 229/1/3
f 232/1/3 230/1/3 231/1/3
f 235/1/3 234/1/3 233/1/3
f 236/1/3 234/1/3 235/1/3
f 239/1/3 238/1/3 237/1/3
f 240/1/3 238/1/3 239/1/3
f 241/1/4 242/1/4 243/1/4
f 243/1/4 242/1/4 244/1/4
f 245/1/4 246/1/4 247/1/4
f 247/1/4 246/1/4 248/1/4
f 249/1/4 250/1/4 251/1/4
f 251/1/4 250/1/4 252/1/4
f 253/1/4 254/1/4 255/1/4
f 255/1/4 254/1/4 256/1/4
f 257/1/4 258/1/4 259/1/4
f 259/1/4 258/1/4 260/1/4
f 261/1/4 262/1/4 263/1/4
f 263/1/4 262/1/4 264/1/4
f 265/1/4 266/1/4 267/1/4
f 267/1/4 266/1/4 268/1/4
f 269/1/4 270/1/4 271/1/4
f 271/1/4 270/1/4 272/1/4
f 273/1/4 274/1/4 275/1/4
f 275/1/4 274/1/4 276/1/4
f 277/1/4 278/1/4 279/1/4
f 279/1/4 278/1/4 280/1/4
f 281/1/4 282/1/4 283/1/4
f 283/1/4 282/1/4 284/1/4
f 285/1/4 286/1/4 287/1/4
f 287/1/4 286/1/4 288/1/4
f 289/1/4 290/1/4 291/1/4
f 291/1/4 290/1/4 292/1/4
f 293/1/4 294/1/4 295/1/4
f 295/1/4 294/1/4 296/1/4
f 297/1/4 298/1/4 299/1/4
f 299/1/4 298/1/4 300/1/4
f 301/1/4 302/1/4 303/1/4
f 303/1/4 302/1/4 304/1/4
f 305/1/4 306/1/4 307/1/4
f 307/1/4 306/1/4 308/1/4
f 309/3/4 310/3/4 311/3/4
f 309/3/4 311/3/4 313/3/4
f 311/2/4 312/2/4 313/2/4
f 313/2/4 312/2/4 314/2/4
f 309/3/4 313/3/4 315/3/4
f 309/3/4 315/3/4 317/3/4
f 315/2/4 316/2/4 317/2/4
f 317/2/4 316/2/4 318/2/4
f 309/3/4 317/3/4 319/3/4
f 319/3/4 317/3/4 320/3/4
f 323/3/5 322/3/5 321/3/5
f 324/3/5 322/3/5 323/3/5
f 325/3/6 326/3/6 331/3/6
f 331/3/6 326/3/6 332/3/6
f 327/3/6 328/3/6 333/3/6
f 333/3/6 328/3/6 334/3/6
f 329/3/6 330/3/6 335/3/6
f 335/3/6 330/3/6 336/3/6
f 337/3/6 338/3/6 343/3/6
f 343/3/6 338/3/6 344/3/6
f 339/3/6 340/3/6 345/3/6
f 345/3/6 340/3/6 346/3/6
f 341/3/6 342/3/6 347/3/6
f 347/3/6 342/3/6 348/3/6
f 349/3/6 350/3/6 355/3/6
f 355/3/6 350/3/6 356/3/6
f 351/3/6 352/3/6 357/3/6
f 357/3/6 352/3/6 358/3/6
f 353/3/6 354/3/6 359/3/6
f 359/3/6 354/3/6 360/3/6
f 361/3/6 362/3/6 367/3/6
f 367/3/6 362/3/6 368/3/6
f 363/3/6 364/3/6 369/3/6
f 369/3/6 364/3/6 370/3/6
f 371/3/6 372/3/6 375/3/6
f 375/3/6 372/3/6 376/3/6
f 373/3/6 374/3/6 377/3/6
f 377/3/6 374/3/6 378/3/6
f 365/3/6 366/3/6 379/3/6
f 379/3/6 366/3/6 380/3/6
f 381/3/6 382/3/6 387/3/6
f 387/3/6 382/3/6 388/3/6
f 383/3/6 384/3/6 389/3/6
f 389/3/6 384/3/6 390/3/6
f 385/3/6 386/3/6 391/3/6
f 391/3/6 386/3/6 392/3/6
f 393/3/6 394/3/6 399/3/6
f 399/3/6 394/3/6 400/3/6
f 395/3/6 396/3/6 401/3/6
f 401/3/6 396/3/6 402/3/6
f 397/3/6 398/3/6 403/3/6
f 403/3/6 398/3/6 404/3/6
f 405/2/6 406/2/6 410/2/6
f 410/2/6 406/2/6 411/2/6
f 407/2/6 408/2/6 412/2/6
f 412/2/6 408/2/6 413/2/6
f 409/1/6 410/1/6 415/1/6
f 410/2/6 411/2/6 416/2/6
f 415/1/6 410/1/6 416/1/6
f 411/1/6 412/1/6 417/1/6
f 416/2/6 411/2/6 417/2/6
f 412/2/6 413/2/6 418/2/6
f 417/1/6 412/1/6 418/1/6
f 413/1/6 414/1/6 419/1/6
f 418/2/6 413/2/6 419/2/6
f 419/1/6 414/1/6 420/1/6
f 416/2/6 417/2/6 422/2/6
f 422/2/6 417/2/6 423/2/6
f 418/2/6 419/2/6 424/2/6
f 424/2/6 419/2/6 425/2/6
f 421/1/6 422/1/6 427/1/6
f 422/2/6 423/2/6 428/2/6
f 427/1/6 422/1/6 428/1/6
f 423/1/6 424/1/6 429/1/6
f 428/2/6 423/2/6 429/2/6
f 424/2/6 425/2/6 430/2/6
f 429/1/6 424/1/6 430/1/6
f 425/1/6 426/1/6 431/1/6
f 430/2/6 425/2/6 431/2/6
f 431/1/6 426/1/6 432/1/6
f 428/2/6 429/2/6 434/2/6
f 434/2/6 429/2/6 435/2/6
f 430/2/6 431/2/6 436/2/6
f 436/2/6 431/2/6 437/2/6
f 433/1/6 434/1/6 439/1/6
f 434/2/6 435/2/6 440/2/6
f 439/1/6 434/1/6 440/1/6
f 435/1/6 436/1/6 441/1/6
f 440/2/6 435/2/6 441/2/6
f 436/2/6 437/2/6 442/2/6
f 441/1/6 436/1/6 442/1/6
f 437/1/6 438/1/6 443/1/6
f 442/2/6 437/2/6 443/2/6
f 443/1/6 438/1/6 444/1/6
f 440/2/6 441/2/6 446/2/6
f 446/2/6 441/2/6 447/2/6
f 442/2/6 443/2/6 448/2/6
f 445/1/6 446/1/6 449/1/6
f 446/2/6 447/2/6 450/2/6
f 449/1/6 446/1/6 450/1/6
f 447/1/6 448/1/6 451/1/6
f 450/2/6 447/2/6 451/2/6
f 448/2/6 443/2/6 452/2/6
f 451/1/6 448/1/6 452/1/6
f 450/2/6 451/2/6 454/2/6
f 454/2/6 451/2/6 455/2/6
f 452/2/6 443/2/6 456/2/6
f 456/2/6 443/2/6 457/2/6
f 453/1/6 454/1/6 459/1/6
f 454/2/6 455/2/6 460/2/6
f 459/1/6 454/1/6 460/1/6
f 455/1/6 456/1/6 461/1/6
f 460/2/6 455/2/6 461/2/6
f 456/2/6 457/2/6 462/2/6
f 461/1/6 456/1/6 462/1/6
f 457/1/6 458/1/6 463/1/6
f 462/2/6 457/2/6 463/2/6
f 463/1/6 458/1/6 464/1/6
f 460/2/6 461/2/6 466/2/6
f 466/2/6 461/2/6 467/2/6
f 462/2/6 463/2/6 468/2/6
f 468/2/6 463/2/6 469/2/6
f 465/1/6 466/1/6 471/1/6
f 466/2/6 467/2/6 472/2/6
f 471/1/6 466/1/6 472/1/6
f 467/1/6 468/1/6 473/1/6
f 472/2/6 467/2/6 473/2/6
f 468/2/6 469/2/6 474/2/6
f 473/1/6 468/1/6 474/1/6
f 469/1/6 470/1/6 475/1/6
f 474/2/6 469/2/6 475/2/6
f 475/1/6 470/1/6 476/1/6
f 472/2/6 473/2/6 477/2/6
f 477/2/6 473/2/6 478/2/6
f 474/2/6 475/2/6 479/2/6
f 479/2/6 475/2/6 480/2/6
