# MagicaVoxel @ Ephtracy

# group
o 

# material
mtllib tree.mtl
usemtl palette

# normals
vn -1 0 0
vn 1 0 0
vn 0 0 1
vn 0 0 -1
vn 0 -1 0
vn 0 1 0

# texcoords
vt 0.369141 0.5
vt 0.720703 0.5
vt 0.841797 0.5

# verts
v 1.3 3.3 -1.5
v 1.3 3.3 -1.6
v 1.3 3.4 -1.5
v 1.3 3.4 -1.6
v 1.3 3.4 -1.9
v 1.3 3.4 -2
v 1.3 3.5 -1.9
v 1.3 3.5 -2
v 1.4 3.2 -1.3
v 1.4 3.2 -2.2
v 1.4 3.3 -1.5
v 1.4 3.3 -1.6
v 1.4 3.4 -1.5
v 1.4 3.4 -1.6
v 1.4 3.4 -1.9
v 1.4 3.4 -2
v 1.4 3.5 -1.9
v 1.4 3.5 -2
v 1.4 3.6 -1.3
v 1.4 3.6 -2.2
v 1.5 3.1 -1.4
v 1.5 3.1 -2.1
v 1.5 3.2 -1.4
v 1.5 3.2 -2.1
v 1.5 3.3 -1.2
v 1.5 3.3 -1.3
v 1.5 3.4 -1.2
v 1.5 3.4 -1.3
v 1.5 3.6 -1.4
v 1.5 3.6 -2.1
v 1.5 3.8 -1.4
v 1.5 3.8 -1.5
v 1.5 3.8 -1.6
v 1.5 3.8 -2.1
v 1.5 3.9 -1.5
v 1.5 3.9 -1.6
v 1.6 3 -1.5
v 1.6 3 -2
v 1.6 3.1 -1.5
v 1.6 3.1 -2
v 1.6 3.4 -2.2
v 1.6 3.4 -2.3
v 1.6 3.5 -2.2
v 1.6 3.5 -2.3
v 1.6 3.8 -1.6
v 1.6 3.8 -2
v 1.6 3.9 -1.6
v 1.6 3.9 -2
v 1.7 2 -1.6
v 1.7 2 -1.9
v 1.7 3 -1.6
v 1.7 3 -1.9
v 1.8 3.3 -2.2
v 1.8 3.3 -2.3
v 1.8 3.4 -1.2
v 1.8 3.4 -1.3
v 1.8 3.4 -2.2
v 1.8 3.4 -2.3
v 1.8 3.5 -1.2
v 1.8 3.5 -1.3
v 2 3.3 -2.2
v 2 3.3 -2.3
v 2 3.4 -2.2
v 2 3.4 -2.3
v 2.1 3.3 -1.2
v 2.1 3.3 -1.3
v 2.1 3.4 -1.2
v 2.1 3.4 -1.3
v 1.6 3.3 -1.2
v 1.6 3.3 -1.3
v 1.6 3.4 -1.2
v 1.6 3.4 -1.3
v 1.7 3.4 -2.2
v 1.7 3.4 -2.3
v 1.7 3.5 -2.2
v 1.7 3.5 -2.3
v 1.9 3.3 -2.2
v 1.9 3.3 -2.3
v 1.9 3.4 -1.2
v 1.9 3.4 -1.3
v 1.9 3.4 -2.2
v 1.9 3.4 -2.3
v 1.9 3.5 -1.2
v 1.9 3.5 -1.3
v 2 2 -1.6
v 2 2 -1.9
v 2 3 -1.6
v 2 3 -1.9
v 2.1 3 -1.5
v 2.1 3 -2
v 2.1 3.1 -1.5
v 2.1 3.1 -2
v 2.1 3.3 -2.2
v 2.1 3.3 -2.3
v 2.1 3.4 -2.2
v 2.1 3.4 -2.3
v 2.1 3.8 -1.5
v 2.1 3.8 -1.7
v 2.1 3.8 -1.8
v 2.1 3.8 -2
v 2.1 3.9 -1.5
v 2.1 3.9 -1.7
v 2.1 3.9 -1.8
v 2.1 3.9 -2
v 2.2 3.1 -1.4
v 2.2 3.1 -2.1
v 2.2 3.2 -1.4
v 2.2 3.2 -2.1
v 2.2 3.3 -1.2
v 2.2 3.3 -1.3
v 2.2 3.4 -1.2
v 2.2 3.4 -1.3
v 2.2 3.6 -1.4
v 2.2 3.6 -2.1
v 2.2 3.8 -1.4
v 2.2 3.8 -1.7
v 2.2 3.8 -1.8
v 2.2 3.8 -2.1
v 2.2 3.9 -1.7
v 2.2 3.9 -1.8
v 2.3 3.2 -1.3
v 2.3 3.2 -2.2
v 2.3 3.3 -1.6
v 2.3 3.3 -1.7
v 2.3 3.4 -1.6
v 2.3 3.4 -1.7
v 2.3 3.5 -1.9
v 2.3 3.5 -2
v 2.3 3.6 -1.3
v 2.3 3.6 -1.9
v 2.3 3.6 -2
v 2.3 3.6 -2.2
v 2.4 3.3 -1.6
v 2.4 3.3 -1.7
v 2.4 3.4 -1.6
v 2.4 3.4 -1.7
v 2.4 3.5 -1.9
v 2.4 3.5 -2
v 2.4 3.6 -1.9
v 2.4 3.6 -2
v 1.5 3.3 -1.2
v 1.5 3.4 -1.2
v 1.6 3.3 -1.2
v 1.6 3.4 -1.2
v 1.8 3.4 -1.2
v 1.8 3.5 -1.2
v 1.9 3.4 -1.2
v 1.9 3.5 -1.2
v 2.1 3.3 -1.2
v 2.1 3.4 -1.2
v 2.2 3.3 -1.2
v 2.2 3.4 -1.2
v 1.4 3.2 -1.3
v 1.4 3.6 -1.3
v 1.5 3.3 -1.3
v 1.5 3.4 -1.3
v 1.6 3.3 -1.3
v 1.6 3.4 -1.3
v 1.8 3.4 -1.3
v 1.8 3.5 -1.3
v 1.9 3.4 -1.3
v 1.9 3.5 -1.3
v 2.1 3.3 -1.3
v 2.1 3.4 -1.3
v 2.2 3.3 -1.3
v 2.2 3.4 -1.3
v 2.3 3.2 -1.3
v 2.3 3.6 -1.3
v 1.5 3.1 -1.4
v 1.5 3.2 -1.4
v 1.5 3.6 -1.4
v 1.5 3.8 -1.4
v 2.2 3.1 -1.4
v 2.2 3.2 -1.4
v 2.2 3.6 -1.4
v 2.2 3.8 -1.4
v 1.3 3.3 -1.5
v 1.3 3.4 -1.5
v 1.4 3.3 -1.5
v 1.4 3.4 -1.5
v 1.5 3.8 -1.5
v 1.5 3.9 -1.5
v 1.6 3 -1.5
v 1.6 3.1 -1.5
v 1.6 3.8 -1.5
v 1.6 3.9 -1.5
v 2.1 3 -1.5
v 2.1 3.1 -1.5
v 2.1 3.8 -1.5
v 2.1 3.9 -1.5
v 1.7 2 -1.6
v 1.7 3 -1.6
v 2 2 -1.6
v 2 3 -1.6
v 2.3 3.3 -1.6
v 2.3 3.4 -1.6
v 2.4 3.3 -1.6
v 2.4 3.4 -1.6
v 2.1 3.8 -1.7
v 2.1 3.9 -1.7
v 2.2 3.8 -1.7
v 2.2 3.9 -1.7
v 1.3 3.4 -1.9
v 1.3 3.5 -1.9
v 1.4 3.4 -1.9
v 1.4 3.5 -1.9
v 2.3 3.5 -1.9
v 2.3 3.6 -1.9
v 2.4 3.5 -1.9
v 2.4 3.6 -1.9
v 1.3 3.3 -1.6
v 1.3 3.4 -1.6
v 1.4 3.3 -1.6
v 1.4 3.4 -1.6
v 1.5 3.8 -1.6
v 1.5 3.9 -1.6
v 1.6 3.8 -1.6
v 1.6 3.9 -1.6
v 2.3 3.3 -1.7
v 2.3 3.4 -1.7
v 2.4 3.3 -1.7
v 2.4 3.4 -1.7
v 2.1 3.8 -1.8
v 2.1 3.9 -1.8
v 2.2 3.8 -1.8
v 2.2 3.9 -1.8
v 1.7 2 -1.9
v 1.7 3 -1.9
v 2 2 -1.9
v 2 3 -1.9
v 1.3 3.4 -2
v 1.3 3.5 -2
v 1.4 3.4 -2
v 1.4 3.5 -2
v 1.6 3 -2
v 1.6 3.1 -2
v 1.6 3.8 -2
v 1.6 3.9 -2
v 2.1 3 -2
v 2.1 3.1 -2
v 2.1 3.8 -2
v 2.1 3.9 -2
v 2.3 3.5 -2
v 2.3 3.6 -2
v 2.4 3.5 -2
v 2.4 3.6 -2
v 1.5 3.1 -2.1
v 1.5 3.2 -2.1
v 1.5 3.6 -2.1
v 1.5 3.8 -2.1
v 2.2 3.1 -2.1
v 2.2 3.2 -2.1
v 2.2 3.6 -2.1
v 2.2 3.8 -2.1
v 1.4 3.2 -2.2
v 1.4 3.6 -2.2
v 1.6 3.4 -2.2
v 1.6 3.5 -2.2
v 1.7 3.4 -2.2
v 1.7 3.5 -2.2
v 1.8 3.3 -2.2
v 1.8 3.4 -2.2
v 1.9 3.3 -2.2
v 1.9 3.4 -2.2
v 2 3.3 -2.2
v 2 3.4 -2.2
v 2.1 3.3 -2.2
v 2.1 3.4 -2.2
v 2.3 3.2 -2.2
v 2.3 3.6 -2.2
v 1.6 3.4 -2.3
v 1.6 3.5 -2.3
v 1.7 3.4 -2.3
v 1.7 3.5 -2.3
v 1.8 3.3 -2.3
v 1.8 3.4 -2.3
v 1.9 3.3 -2.3
v 1.9 3.4 -2.3
v 2 3.3 -2.3
v 2 3.4 -2.3
v 2.1 3.3 -2.3
v 2.1 3.4 -2.3
v 1.7 2 -1.6
v 2 2 -1.6
v 1.7 2 -1.9
v 2 2 -1.9
v 1.6 3 -1.5
v 2.1 3 -1.5
v 1.7 3 -1.6
v 2 3 -1.6
v 1.7 3 -1.9
v 2 3 -1.9
v 1.6 3 -2
v 2.1 3 -2
v 1.5 3.1 -1.4
v 2.2 3.1 -1.4
v 1.6 3.1 -1.5
v 2.1 3.1 -1.5
v 1.6 3.1 -2
v 2.1 3.1 -2
v 1.5 3.1 -2.1
v 2.2 3.1 -2.1
v 1.4 3.2 -1.3
v 2.3 3.2 -1.3
v 1.5 3.2 -1.4
v 2.2 3.2 -1.4
v 1.5 3.2 -2.1
v 2.2 3.2 -2.1
v 1.4 3.2 -2.2
v 2.3 3.2 -2.2
v 1.5 3.3 -1.2
v 1.6 3.3 -1.2
v 2.1 3.3 -1.2
v 2.2 3.3 -1.2
v 1.5 3.3 -1.3
v 1.6 3.3 -1.3
v 2.1 3.3 -1.3
v 2.2 3.3 -1.3
v 1.3 3.3 -1.5
v 1.4 3.3 -1.5
v 1.3 3.3 -1.6
v 1.4 3.3 -1.6
v 2.3 3.3 -1.6
v 2.4 3.3 -1.6
v 2.3 3.3 -1.7
v 2.4 3.3 -1.7
v 1.8 3.3 -2.2
v 1.9 3.3 -2.2
v 2 3.3 -2.2
v 2.1 3.3 -2.2
v 1.8 3.3 -2.3
v 1.9 3.3 -2.3
v 2 3.3 -2.3
v 2.1 3.3 -2.3
v 1.8 3.4 -1.2
v 1.9 3.4 -1.2
v 1.8 3.4 -1.3
v 1.9 3.4 -1.3
v 1.3 3.4 -1.9
v 1.4 3.4 -1.9
v 1.3 3.4 -2
v 1.4 3.4 -2
v 1.6 3.4 -2.2
v 1.7 3.4 -2.2
v 1.6 3.4 -2.3
v 1.7 3.4 -2.3
v 2.3 3.5 -1.9
v 2.4 3.5 -1.9
v 2.3 3.5 -2
v 2.4 3.5 -2
v 1.5 3.4 -1.2
v 1.6 3.4 -1.2
v 2.1 3.4 -1.2
v 2.2 3.4 -1.2
v 1.5 3.4 -1.3
v 1.6 3.4 -1.3
v 2.1 3.4 -1.3
v 2.2 3.4 -1.3
v 1.3 3.4 -1.5
v 1.4 3.4 -1.5
v 1.3 3.4 -1.6
v 1.4 3.4 -1.6
v 2.3 3.4 -1.6
v 2.4 3.4 -1.6
v 2.3 3.4 -1.7
v 2.4 3.4 -1.7
v 1.8 3.4 -2.2
v 1.9 3.4 -2.2
v 2 3.4 -2.2
v 2.1 3.4 -2.2
v 1.8 3.4 -2.3
v 1.9 3.4 -2.3
v 2 3.4 -2.3
v 2.1 3.4 -2.3
v 1.8 3.5 -1.2
v 1.9 3.5 -1.2
v 1.8 3.5 -1.3
v 1.9 3.5 -1.3
v 1.3 3.5 -1.9
v 1.4 3.5 -1.9
v 1.3 3.5 -2
v 1.4 3.5 -2
v 1.6 3.5 -2.2
v 1.7 3.5 -2.2
v 1.6 3.5 -2.3
v 1.7 3.5 -2.3
v 1.4 3.6 -1.3
v 2.3 3.6 -1.3
v 1.5 3.6 -1.4
v 2.2 3.6 -1.4
v 2.3 3.6 -1.9
v 2.4 3.6 -1.9
v 2.3 3.6 -2
v 2.4 3.6 -2
v 1.5 3.6 -2.1
v 2.2 3.6 -2.1
v 1.4 3.6 -2.2
v 2.3 3.6 -2.2
v 1.5 3.8 -1.4
v 2.2 3.8 -1.4
v 1.5 3.8 -1.5
v 1.6 3.8 -1.5
v 2.1 3.8 -1.5
v 1.5 3.8 -1.6
v 1.6 3.8 -1.6
v 2.1 3.8 -1.7
v 2.2 3.8 -1.7
v 2.1 3.8 -1.8
v 2.2 3.8 -1.8
v 1.6 3.8 -2
v 2.1 3.8 -2
v 1.5 3.8 -2.1
v 2.2 3.8 -2.1
v 1.5 3.9 -1.5
v 1.6 3.9 -1.5
v 2.1 3.9 -1.5
v 1.5 3.9 -1.6
v 1.6 3.9 -1.6
v 2.1 3.9 -1.7
v 2.2 3.9 -1.7
v 2.1 3.9 -1.8
v 2.2 3.9 -1.8
v 1.6 3.9 -2
v 2.1 3.9 -2

# faces
f 3/3/1 2/3/1 1/3/1
f 4/3/1 2/3/1 3/3/1
f 7/3/1 6/3/1 5/3/1
f 8/3/1 6/3/1 7/3/1
f 11/2/1 10/2/1 9/2/1
f 12/2/1 10/2/1 11/2/1
f 13/2/1 11/2/1 9/2/1
f 14/2/1 10/2/1 12/2/1
f 15/2/1 10/2/1 14/2/1
f 16/2/1 10/2/1 15/2/1
f 17/2/1 14/2/1 13/2/1
f 17/2/1 15/2/1 14/2/1
f 18/2/1 10/2/1 16/2/1
f 19/2/1 13/2/1 9/2/1
f 19/2/1 18/2/1 17/2/1
f 19/2/1 17/2/1 13/2/1
f 20/2/1 10/2/1 18/2/1
f 20/2/1 18/2/1 19/2/1
f 23/2/1 22/2/1 21/2/1
f 24/2/1 22/2/1 23/2/1
f 27/3/1 26/3/1 25/3/1
f 28/3/1 26/3/1 27/3/1
f 31/2/1 30/2/1 29/2/1
f 32/2/1 30/2/1 31/2/1
f 33/2/1 30/2/1 32/2/1
f 34/2/1 30/2/1 33/2/1
f 35/3/1 33/3/1 32/3/1
f 36/3/1 33/3/1 35/3/1
f 39/2/1 38/2/1 37/2/1
f 40/2/1 38/2/1 39/2/1
f 43/3/1 42/3/1 41/3/1
f 44/3/1 42/3/1 43/3/1
f 47/2/1 46/2/1 45/2/1
f 48/2/1 46/2/1 47/2/1
f 51/1/1 50/1/1 49/1/1
f 52/1/1 50/1/1 51/1/1
f 57/3/1 54/3/1 53/3/1
f 58/3/1 54/3/1 57/3/1
f 59/3/1 56/3/1 55/3/1
f 60/3/1 56/3/1 59/3/1
f 63/3/1 62/3/1 61/3/1
f 64/3/1 62/3/1 63/3/1
f 67/3/1 66/3/1 65/3/1
f 68/3/1 66/3/1 67/3/1
f 69/3/2 70/3/2 71/3/2
f 71/3/2 70/3/2 72/3/2
f 73/3/2 74/3/2 75/3/2
f 75/3/2 74/3/2 76/3/2
f 77/3/2 78/3/2 81/3/2
f 81/3/2 78/3/2 82/3/2
f 79/3/2 80/3/2 83/3/2
f 83/3/2 80/3/2 84/3/2
f 85/1/2 86/1/2 87/1/2
f 87/1/2 86/1/2 88/1/2
f 89/2/2 90/2/2 91/2/2
f 91/2/2 90/2/2 92/2/2
f 93/3/2 94/3/2 95/3/2
f 95/3/2 94/3/2 96/3/2
f 97/2/2 98/2/2 101/2/2
f 101/2/2 98/2/2 102/2/2
f 99/2/2 100/2/2 103/2/2
f 103/2/2 100/2/2 104/2/2
f 105/2/2 106/2/2 107/2/2
f 107/2/2 106/2/2 108/2/2
f 109/3/2 110/3/2 111/3/2
f 111/3/2 110/3/2 112/3/2
f 113/2/2 114/2/2 115/2/2
f 115/2/2 114/2/2 116/2/2
f 116/2/2 114/2/2 117/2/2
f 117/2/2 114/2/2 118/2/2
f 116/3/2 117/3/2 119/3/2
f 119/3/2 117/3/2 120/3/2
f 121/2/2 122/2/2 123/2/2
f 123/2/2 122/2/2 124/2/2
f 121/2/2 123/2/2 125/2/2
f 124/2/2 122/2/2 126/2/2
f 126/2/2 122/2/2 127/2/2
f 125/2/2 126/2/2 127/2/2
f 127/2/2 122/2/2 128/2/2
f 121/2/2 125/2/2 129/2/2
f 125/2/2 127/2/2 129/2/2
f 129/2/2 127/2/2 130/2/2
f 128/2/2 122/2/2 131/2/2
f 131/2/2 122/2/2 132/2/2
f 133/3/2 134/3/2 135/3/2
f 135/3/2 134/3/2 136/3/2
f 137/3/2 138/3/2 139/3/2
f 139/3/2 138/3/2 140/3/2
f 143/3/3 142/3/3 141/3/3
f 144/3/3 142/3/3 143/3/3
f 147/3/3 146/3/3 145/3/3
f 148/3/3 146/3/3 147/3/3
f 151/3/3 150/3/3 149/3/3
f 152/3/3 150/3/3 151/3/3
f 155/2/3 154/2/3 153/2/3
f 156/2/3 154/2/3 155/2/3
f 157/2/3 155/2/3 153/2/3
f 158/2/3 154/2/3 156/2/3
f 159/2/3 154/2/3 158/2/3
f 159/2/3 158/2/3 157/2/3
f 160/2/3 154/2/3 159/2/3
f 161/2/3 159/2/3 157/2/3
f 162/2/3 154/2/3 160/2/3
f 163/2/3 157/2/3 153/2/3
f 163/2/3 162/2/3 161/2/3
f 163/2/3 161/2/3 157/2/3
f 164/2/3 162/2/3 163/2/3
f 165/2/3 163/2/3 153/2/3
f 166/2/3 162/2/3 164/2/3
f 167/2/3 165/2/3 153/2/3
f 167/2/3 166/2/3 165/2/3
f 168/2/3 154/2/3 162/2/3
f 168/2/3 166/2/3 167/2/3
f 168/2/3 162/2/3 166/2/3
f 173/2/3 170/2/3 169/2/3
f 174/2/3 170/2/3 173/2/3
f 175/2/3 172/2/3 171/2/3
f 176/2/3 172/2/3 175/2/3
f 179/3/3 178/3/3 177/3/3
f 180/3/3 178/3/3 179/3/3
f 185/3/3 182/3/3 181/3/3
f 186/3/3 182/3/3 185/3/3
f 187/2/3 184/2/3 183/2/3
f 188/2/3 184/2/3 187/2/3
f 189/2/3 186/2/3 185/2/3
f 190/2/3 186/2/3 189/2/3
f 193/1/3 192/1/3 191/1/3
f 194/1/3 192/1/3 193/1/3
f 197/3/3 196/3/3 195/3/3
f 198/3/3 196/3/3 197/3/3
f 201/3/3 200/3/3 199/3/3
f 202/3/3 200/3/3 201/3/3
f 205/3/3 204/3/3 203/3/3
f 206/3/3 204/3/3 205/3/3
f 209/3/3 208/3/3 207/3/3
f 210/3/3 208/3/3 209/3/3
f 211/3/4 212/3/4 213/3/4
f 213/3/4 212/3/4 214/3/4
f 215/3/4 216/3/4 217/3/4
f 217/3/4 216/3/4 218/3/4
f 219/3/4 220/3/4 221/3/4
f 221/3/4 220/3/4 222/3/4
f 223/3/4 224/3/4 225/3/4
f 225/3/4 224/3/4 226/3/4
f 227/1/4 228/1/4 229/1/4
f 229/1/4 228/1/4 230/1/4
f 231/3/4 232/3/4 233/3/4
f 233/3/4 232/3/4 234/3/4
f 235/2/4 236/2/4 239/2/4
f 239/2/4 236/2/4 240/2/4
f 237/2/4 238/2/4 241/2/4
f 241/2/4 238/2/4 242/2/4
f 243/3/4 244/3/4 245/3/4
f 245/3/4 244/3/4 246/3/4
f 247/2/4 248/2/4 251/2/4
f 251/2/4 248/2/4 252/2/4
f 249/2/4 250/2/4 253/2/4
f 253/2/4 250/2/4 254/2/4
f 255/2/4 256/2/4 257/2/4
f 257/2/4 256/2/4 258/2/4
f 255/2/4 257/2/4 259/2/4
f 258/2/4 256/2/4 260/2/4
f 255/2/4 259/2/4 261/2/4
f 259/2/4 260/2/4 261/2/4
f 261/2/4 260/2/4 262/2/4
f 255/2/4 261/2/4 263/2/4
f 262/2/4 260/2/4 264/2/4
f 255/2/4 263/2/4 265/2/4
f 263/2/4 264/2/4 265/2/4
f 264/2/4 260/2/4 266/2/4
f 265/2/4 264/2/4 266/2/4
f 255/2/4 265/2/4 267/2/4
f 266/2/4 260/2/4 268/2/4
f 255/2/4 267/2/4 269/2/4
f 267/2/4 268/2/4 269/2/4
f 260/2/4 256/2/4 270/2/4
f 269/2/4 268/2/4 270/2/4
f 268/2/4 260/2/4 270/2/4
f 271/3/4 272/3/4 273/3/4
f 273/3/4 272/3/4 274/3/4
f 275/3/4 276/3/4 277/3/4
f 277/3/4 276/3/4 278/3/4
f 279/3/4 280/3/4 281/3/4
f 281/3/4 280/3/4 282/3/4
f 285/1/5 284/1/5 283/1/5
f 286/1/5 284/1/5 285/1/5
f 289/2/5 288/2/5 287/2/5
f 290/2/5 288/2/5 289/2/5
f 291/2/5 289/2/5 287/2/5
f 292/2/5 288/2/5 290/2/5
f 293/2/5 291/2/5 287/2/5
f 293/2/5 292/2/5 291/2/5
f 294/2/5 288/2/5 292/2/5
f 294/2/5 292/2/5 293/2/5
f 297/2/5 296/2/5 295/2/5
f 298/2/5 296/2/5 297/2/5
f 299/2/5 297/2/5 295/2/5
f 300/2/5 296/2/5 298/2/5
f 301/2/5 299/2/5 295/2/5
f 301/2/5 300/2/5 299/2/5
f 302/2/5 296/2/5 300/2/5
f 302/2/5 300/2/5 301/2/5
f 305/2/5 304/2/5 303/2/5
f 306/2/5 304/2/5 305/2/5
f 307/2/5 305/2/5 303/2/5
f 308/2/5 304/2/5 306/2/5
f 309/2/5 307/2/5 303/2/5
f 309/2/5 308/2/5 307/2/5
f 310/2/5 304/2/5 308/2/5
f 310/2/5 308/2/5 309/2/5
f 315/3/5 312/3/5 311/3/5
f 316/3/5 312/3/5 315/3/5
f 317/3/5 314/3/5 313/3/5
f 318/3/5 314/3/5 317/3/5
f 321/3/5 320/3/5 319/3/5
f 322/3/5 320/3/5 321/3/5
f 325/3/5 324/3/5 323/3/5
f 326/3/5 324/3/5 325/3/5
f 331/3/5 328/3/5 327/3/5
f 332/3/5 328/3/5 331/3/5
f 333/3/5 330/3/5 329/3/5
f 334/3/5 330/3/5 333/3/5
f 337/3/5 336/3/5 335/3/5
f 338/3/5 336/3/5 337/3/5
f 341/3/5 340/3/5 339/3/5
f 342/3/5 340/3/5 341/3/5
f 345/3/5 344/3/5 343/3/5
f 346/3/5 344/3/5 345/3/5
f 349/3/5 348/3/5 347/3/5
f 350/3/5 348/3/5 349/3/5
f 351/3/6 352/3/6 355/3/6
f 355/3/6 352/3/6 356/3/6
f 353/3/6 354/3/6 357/3/6
f 357/3/6 354/3/6 358/3/6
f 359/3/6 360/3/6 361/3/6
f 361/3/6 360/3/6 362/3/6
f 363/3/6 364/3/6 365/3/6
f 365/3/6 364/3/6 366/3/6
f 367/3/6 368/3/6 371/3/6
f 371/3/6 368/3/6 372/3/6
f 369/3/6 370/3/6 373/3/6
f 373/3/6 370/3/6 374/3/6
f 375/3/6 376/3/6 377/3/6
f 377/3/6 376/3/6 378/3/6
f 379/3/6 380/3/6 381/3/6
f 381/3/6 380/3/6 382/3/6
f 383/3/6 384/3/6 385/3/6
f 385/3/6 384/3/6 386/3/6
f 387/2/6 388/2/6 389/2/6
f 389/2/6 388/2/6 390/2/6
f 390/2/6 388/2/6 391/2/6
f 390/2/6 391/2/6 393/2/6
f 391/3/6 392/3/6 393/3/6
f 393/3/6 392/3/6 394/3/6
f 387/2/6 389/2/6 395/2/6
f 390/2/6 393/2/6 396/2/6
f 387/2/6 395/2/6 397/2/6
f 395/2/6 396/2/6 397/2/6
f 396/2/6 393/2/6 398/2/6
f 397/2/6 396/2/6 398/2/6
f 399/2/6 400/2/6 401/2/6
f 401/2/6 400/2/6 402/2/6
f 402/2/6 400/2/6 403/2/6
f 403/2/6 400/2/6 406/2/6
f 406/2/6 400/2/6 407/2/6
f 404/2/6 405/2/6 410/2/6
f 408/2/6 409/2/6 411/2/6
f 404/2/6 410/2/6 412/2/6
f 410/2/6 411/2/6 412/2/6
f 411/2/6 409/2/6 413/2/6
f 412/2/6 411/2/6 413/2/6
f 414/3/6 415/3/6 417/3/6
f 415/2/6 416/2/6 418/2/6
f 417/3/6 415/3/6 418/3/6
f 418/2/6 416/2/6 419/2/6
f 418/2/6 419/2/6 421/2/6
f 419/3/6 420/3/6 421/3/6
f 421/3/6 420/3/6 422/3/6
f 418/2/6 421/2/6 423/2/6
f 423/2/6 421/2/6 424/2/6
