# MagicaVoxel @ Ephtracy

# group
o 

# material
mtllib roadleft.mtl
usemtl palette

# normals
vn -1 0 0
vn 1 0 0
vn 0 0 1
vn 0 0 -1
vn 0 -1 0
vn 0 1 0

# texcoords
vt 0.970703 0.5
vt 0.982422 0.5

# verts
v 1.5 2 0
v 1.5 2 -0.4
v 1.5 2 -1.3
v 1.5 2 -1.6
v 1.5 2 -2.5
v 1.5 2 -2.8
v 1.5 2 -3.7
v 1.5 2 -4
v 1.5 2.1 0
v 1.5 2.1 -0.4
v 1.5 2.1 -1.3
v 1.5 2.1 -1.6
v 1.5 2.1 -2.5
v 1.5 2.1 -2.8
v 1.5 2.1 -3.7
v 1.5 2.1 -4
v 2.6 2 0
v 2.6 2 -4
v 2.6 2.1 0
v 2.6 2.1 -4
v 1.5 2 0
v 1.5 2.1 0
v 2.6 2 0
v 2.6 2.1 0
v 1.5 2 -4
v 1.5 2.1 -4
v 2.6 2 -4
v 2.6 2.1 -4
v 1.5 2 0
v 2.6 2 0
v 1.5 2 -0.4
v 1.6 2 -0.4
v 1.5 2 -1.3
v 1.6 2 -1.3
v 1.5 2 -1.6
v 1.6 2 -1.6
v 1.5 2 -2.5
v 1.6 2 -2.5
v 1.5 2 -2.8
v 1.6 2 -2.8
v 1.5 2 -3.7
v 1.6 2 -3.7
v 1.5 2 -4
v 2.6 2 -4
v 1.5 2.1 0
v 2.6 2.1 0
v 1.5 2.1 -0.4
v 1.6 2.1 -0.4
v 1.5 2.1 -1.3
v 1.6 2.1 -1.3
v 1.5 2.1 -1.6
v 1.6 2.1 -1.6
v 1.5 2.1 -2.5
v 1.6 2.1 -2.5
v 1.5 2.1 -2.8
v 1.6 2.1 -2.8
v 1.5 2.1 -3.7
v 1.6 2.1 -3.7
v 1.5 2.1 -4
v 2.6 2.1 -4

# faces
f 9/2/1 2/2/1 1/2/1
f 10/1/1 3/1/1 2/1/1
f 10/2/1 2/2/1 9/2/1
f 11/2/1 4/2/1 3/2/1
f 11/1/1 3/1/1 10/1/1
f 12/1/1 5/1/1 4/1/1
f 12/2/1 4/2/1 11/2/1
f 13/2/1 6/2/1 5/2/1
f 13/1/1 5/1/1 12/1/1
f 14/1/1 7/1/1 6/1/1
f 14/2/1 6/2/1 13/2/1
f 15/2/1 8/2/1 7/2/1
f 15/1/1 7/1/1 14/1/1
f 16/2/1 8/2/1 15/2/1
f 17/2/2 18/2/2 19/2/2
f 19/2/2 18/2/2 20/2/2
f 23/2/3 22/2/3 21/2/3
f 24/2/3 22/2/3 23/2/3
f 25/2/4 26/2/4 27/2/4
f 27/2/4 26/2/4 28/2/4
f 31/2/5 30/2/5 29/2/5
f 32/2/5 30/2/5 31/2/5
f 33/1/5 32/1/5 31/1/5
f 34/2/5 30/2/5 32/2/5
f 34/1/5 32/1/5 33/1/5
f 35/2/5 34/2/5 33/2/5
f 36/2/5 30/2/5 34/2/5
f 36/2/5 34/2/5 35/2/5
f 37/1/5 36/1/5 35/1/5
f 38/2/5 30/2/5 36/2/5
f 38/1/5 36/1/5 37/1/5
f 39/2/5 38/2/5 37/2/5
f 40/2/5 30/2/5 38/2/5
f 40/2/5 38/2/5 39/2/5
f 41/1/5 40/1/5 39/1/5
f 42/2/5 30/2/5 40/2/5
f 42/1/5 40/1/5 41/1/5
f 43/2/5 42/2/5 41/2/5
f 44/2/5 30/2/5 42/2/5
f 44/2/5 42/2/5 43/2/5
f 45/2/6 46/2/6 47/2/6
f 47/2/6 46/2/6 48/2/6
f 47/1/6 48/1/6 49/1/6
f 48/2/6 46/2/6 50/2/6
f 49/1/6 48/1/6 50/1/6
f 49/2/6 50/2/6 51/2/6
f 50/2/6 46/2/6 52/2/6
f 51/2/6 50/2/6 52/2/6
f 51/1/6 52/1/6 53/1/6
f 52/2/6 46/2/6 54/2/6
f 53/1/6 52/1/6 54/1/6
f 53/2/6 54/2/6 55/2/6
f 54/2/6 46/2/6 56/2/6
f 55/2/6 54/2/6 56/2/6
f 55/1/6 56/1/6 57/1/6
f 56/2/6 46/2/6 58/2/6
f 57/1/6 56/1/6 58/1/6
f 57/2/6 58/2/6 59/2/6
f 58/2/6 46/2/6 60/2/6
f 59/2/6 58/2/6 60/2/6
