# MagicaVoxel @ Ephtracy

# group
o 

# material
mtllib traintracks.mtl
usemtl palette

# normals
vn -1 0 0
vn 1 0 0
vn 0 0 1
vn 0 0 -1
vn 0 -1 0
vn 0 1 0

# texcoords
vt 0.533203 0.5
vt 0.841797 0.5
vt 0.958984 0.5
vt 0.978516 0.5
vt 0.982422 0.5
vt 0.990234 0.5
vt 0.994141 0.5

# verts
v 1.4 2 0
v 1.4 2 -4
v 1.4 2.1 0
v 1.4 2.1 -0.1
v 1.4 2.1 -0.2
v 1.4 2.1 -0.8
v 1.4 2.1 -0.9
v 1.4 2.1 -1.5
v 1.4 2.1 -1.6
v 1.4 2.1 -2.2
v 1.4 2.1 -2.3
v 1.4 2.1 -2.9
v 1.4 2.1 -3
v 1.4 2.1 -3.5
v 1.4 2.1 -3.6
v 1.4 2.1 -4
v 1.4 2.2 -0.1
v 1.4 2.2 -0.2
v 1.4 2.2 -0.8
v 1.4 2.2 -0.9
v 1.4 2.2 -1.5
v 1.4 2.2 -1.6
v 1.4 2.2 -2.2
v 1.4 2.2 -2.3
v 1.4 2.2 -2.9
v 1.4 2.2 -3
v 1.4 2.2 -3.5
v 1.4 2.2 -3.6
v 1.5 2.1 0
v 1.5 2.1 -0.1
v 1.5 2.1 -0.2
v 1.5 2.1 -0.8
v 1.5 2.1 -0.9
v 1.5 2.1 -1.5
v 1.5 2.1 -1.6
v 1.5 2.1 -2.2
v 1.5 2.1 -2.3
v 1.5 2.1 -2.9
v 1.5 2.1 -3
v 1.5 2.1 -3.5
v 1.5 2.1 -3.6
v 1.5 2.1 -4
v 1.5 2.2 0
v 1.5 2.2 -0.1
v 1.5 2.2 -0.2
v 1.5 2.2 -0.8
v 1.5 2.2 -0.9
v 1.5 2.2 -1.5
v 1.5 2.2 -1.6
v 1.5 2.2 -2.2
v 1.5 2.2 -2.3
v 1.5 2.2 -2.9
v 1.5 2.2 -3
v 1.5 2.2 -3.5
v 1.5 2.2 -3.6
v 1.5 2.2 -4
v 2.3 2.1 0
v 2.3 2.1 -0.1
v 2.3 2.1 -0.2
v 2.3 2.1 -0.8
v 2.3 2.1 -0.9
v 2.3 2.1 -1.5
v 2.3 2.1 -1.6
v 2.3 2.1 -2.2
v 2.3 2.1 -2.3
v 2.3 2.1 -2.9
v 2.3 2.1 -3
v 2.3 2.1 -3.5
v 2.3 2.1 -3.6
v 2.3 2.1 -4
v 2.3 2.2 0
v 2.3 2.2 -0.1
v 2.3 2.2 -0.2
v 2.3 2.2 -0.8
v 2.3 2.2 -0.9
v 2.3 2.2 -1.5
v 2.3 2.2 -1.6
v 2.3 2.2 -2.2
v 2.3 2.2 -2.3
v 2.3 2.2 -2.9
v 2.3 2.2 -3
v 2.3 2.2 -3.5
v 2.3 2.2 -3.6
v 2.3 2.2 -4
v 2.4 2.2 -2.2
v 2.4 2.2 -2.3
v 2.4 2.3 -2.2
v 2.4 2.3 -2.3
v 2.4 2.4 -2.2
v 2.4 2.4 -2.3
v 2.4 2.5 -2.2
v 2.4 2.5 -2.3
v 2.4 2.6 -2.2
v 2.4 2.6 -2.3
v 2.4 2.7 -2.2
v 2.4 2.7 -2.3
v 2.4 2.8 -2.2
v 2.4 2.8 -2.3
v 2.4 2.9 -2.2
v 2.4 2.9 -2.3
v 2.4 3 -2.2
v 2.4 3 -2.3
v 2.4 3.1 -2.2
v 2.4 3.1 -2.3
v 2.5 2.7 -2
v 2.5 2.7 -2.2
v 2.5 2.7 -2.3
v 2.5 2.7 -2.5
v 2.5 2.8 -2.2
v 2.5 2.8 -2.3
v 2.5 2.9 -2
v 2.5 2.9 -2.2
v 2.5 2.9 -2.3
v 2.5 2.9 -2.5
v 1.6 2.1 0
v 1.6 2.1 -0.1
v 1.6 2.1 -0.2
v 1.6 2.1 -0.8
v 1.6 2.1 -0.9
v 1.6 2.1 -1.5
v 1.6 2.1 -1.6
v 1.6 2.1 -2.2
v 1.6 2.1 -2.3
v 1.6 2.1 -2.9
v 1.6 2.1 -3
v 1.6 2.1 -3.5
v 1.6 2.1 -3.6
v 1.6 2.1 -4
v 1.6 2.2 0
v 1.6 2.2 -0.1
v 1.6 2.2 -0.2
v 1.6 2.2 -0.8
v 1.6 2.2 -0.9
v 1.6 2.2 -1.5
v 1.6 2.2 -1.6
v 1.6 2.2 -2.2
v 1.6 2.2 -2.3
v 1.6 2.2 -2.9
v 1.6 2.2 -3
v 1.6 2.2 -3.5
v 1.6 2.2 -3.6
v 1.6 2.2 -4
v 2.4 2.1 0
v 2.4 2.1 -0.1
v 2.4 2.1 -0.2
v 2.4 2.1 -0.8
v 2.4 2.1 -0.9
v 2.4 2.1 -1.5
v 2.4 2.1 -1.6
v 2.4 2.1 -2.2
v 2.4 2.1 -2.3
v 2.4 2.1 -2.9
v 2.4 2.1 -3
v 2.4 2.1 -3.5
v 2.4 2.1 -3.6
v 2.4 2.1 -4
v 2.4 2.2 0
v 2.4 2.2 -0.1
v 2.4 2.2 -0.2
v 2.4 2.2 -0.8
v 2.4 2.2 -0.9
v 2.4 2.2 -1.5
v 2.4 2.2 -1.6
v 2.4 2.2 -2.2
v 2.4 2.2 -2.3
v 2.4 2.2 -2.9
v 2.4 2.2 -3
v 2.4 2.2 -3.5
v 2.4 2.2 -3.6
v 2.4 2.2 -4
v 2.5 2 0
v 2.5 2 -4
v 2.5 2.1 0
v 2.5 2.1 -0.1
v 2.5 2.1 -0.2
v 2.5 2.1 -0.8
v 2.5 2.1 -0.9
v 2.5 2.1 -1.5
v 2.5 2.1 -1.6
v 2.5 2.1 -2.2
v 2.5 2.1 -2.3
v 2.5 2.1 -2.9
v 2.5 2.1 -3
v 2.5 2.1 -3.5
v 2.5 2.1 -3.6
v 2.5 2.1 -4
v 2.5 2.2 -0.1
v 2.5 2.2 -0.2
v 2.5 2.2 -0.8
v 2.5 2.2 -0.9
v 2.5 2.2 -1.5
v 2.5 2.2 -1.6
v 2.5 2.2 -2.2
v 2.5 2.2 -2.3
v 2.5 2.2 -2.9
v 2.5 2.2 -3
v 2.5 2.2 -3.5
v 2.5 2.2 -3.6
v 2.5 2.3 -2.2
v 2.5 2.3 -2.3
v 2.5 2.4 -2.2
v 2.5 2.4 -2.3
v 2.5 2.5 -2.2
v 2.5 2.5 -2.3
v 2.5 2.6 -2.2
v 2.5 2.6 -2.3
v 2.5 2.7 -2.2
v 2.5 2.7 -2.3
v 2.5 2.9 -2.2
v 2.5 2.9 -2.3
v 2.5 3 -2.2
v 2.5 3 -2.3
v 2.5 3.1 -2.2
v 2.5 3.1 -2.3
v 2.6 2.7 -2
v 2.6 2.7 -2.5
v 2.6 2.8 -2.1
v 2.6 2.8 -2.2
v 2.6 2.8 -2.3
v 2.6 2.8 -2.4
v 2.6 2.9 -2
v 2.6 2.9 -2.1
v 2.6 2.9 -2.2
v 2.6 2.9 -2.3
v 2.6 2.9 -2.4
v 2.6 2.9 -2.5
v 2.7 2.8 -2.1
v 2.7 2.8 -2.2
v 2.7 2.8 -2.3
v 2.7 2.8 -2.4
v 2.7 2.9 -2.1
v 2.7 2.9 -2.2
v 2.7 2.9 -2.3
v 2.7 2.9 -2.4
v 1.4 2 0
v 1.4 2.1 0
v 1.5 2.1 0
v 1.5 2.2 0
v 1.6 2.1 0
v 1.6 2.2 0
v 2.3 2.1 0
v 2.3 2.2 0
v 2.4 2.1 0
v 2.4 2.2 0
v 2.5 2 0
v 2.5 2.1 0
v 1.4 2.1 -0.1
v 1.4 2.2 -0.1
v 1.5 2.1 -0.1
v 1.5 2.2 -0.1
v 1.6 2.1 -0.1
v 1.6 2.2 -0.1
v 2.3 2.1 -0.1
v 2.3 2.2 -0.1
v 2.4 2.1 -0.1
v 2.4 2.2 -0.1
v 2.5 2.1 -0.1
v 2.5 2.2 -0.1
v 1.4 2.1 -0.8
v 1.4 2.2 -0.8
v 1.5 2.1 -0.8
v 1.5 2.2 -0.8
v 1.6 2.1 -0.8
v 1.6 2.2 -0.8
v 2.3 2.1 -0.8
v 2.3 2.2 -0.8
v 2.4 2.1 -0.8
v 2.4 2.2 -0.8
v 2.5 2.1 -0.8
v 2.5 2.2 -0.8
v 1.4 2.1 -1.5
v 1.4 2.2 -1.5
v 1.5 2.1 -1.5
v 1.5 2.2 -1.5
v 1.6 2.1 -1.5
v 1.6 2.2 -1.5
v 2.3 2.1 -1.5
v 2.3 2.2 -1.5
v 2.4 2.1 -1.5
v 2.4 2.2 -1.5
v 2.5 2.1 -1.5
v 2.5 2.2 -1.5
v 2.5 2.7 -2
v 2.5 2.9 -2
v 2.6 2.7 -2
v 2.6 2.9 -2
v 2.6 2.8 -2.1
v 2.6 2.9 -2.1
v 2.7 2.8 -2.1
v 2.7 2.9 -2.1
v 1.4 2.1 -2.2
v 1.4 2.2 -2.2
v 1.5 2.1 -2.2
v 1.5 2.2 -2.2
v 1.6 2.1 -2.2
v 1.6 2.2 -2.2
v 2.3 2.1 -2.2
v 2.3 2.2 -2.2
v 2.4 2.1 -2.2
v 2.4 2.2 -2.2
v 2.4 2.3 -2.2
v 2.4 2.4 -2.2
v 2.4 2.5 -2.2
v 2.4 2.6 -2.2
v 2.4 2.7 -2.2
v 2.4 2.8 -2.2
v 2.4 2.9 -2.2
v 2.4 3 -2.2
v 2.4 3.1 -2.2
v 2.5 2.1 -2.2
v 2.5 2.2 -2.2
v 2.5 2.3 -2.2
v 2.5 2.4 -2.2
v 2.5 2.5 -2.2
v 2.5 2.6 -2.2
v 2.5 2.7 -2.2
v 2.5 2.8 -2.2
v 2.5 2.9 -2.2
v 2.5 3 -2.2
v 2.5 3.1 -2.2
v 2.6 2.8 -2.3
v 2.6 2.9 -2.3
v 2.7 2.8 -2.3
v 2.7 2.9 -2.3
v 1.4 2.1 -2.9
v 1.4 2.2 -2.9
v 1.5 2.1 -2.9
v 1.5 2.2 -2.9
v 1.6 2.1 -2.9
v 1.6 2.2 -2.9
v 2.3 2.1 -2.9
v 2.3 2.2 -2.9
v 2.4 2.1 -2.9
v 2.4 2.2 -2.9
v 2.5 2.1 -2.9
v 2.5 2.2 -2.9
v 1.4 2.1 -3.5
v 1.4 2.2 -3.5
v 1.5 2.1 -3.5
v 1.5 2.2 -3.5
v 1.6 2.1 -3.5
v 1.6 2.2 -3.5
v 2.3 2.1 -3.5
v 2.3 2.2 -3.5
v 2.4 2.1 -3.5
v 2.4 2.2 -3.5
v 2.5 2.1 -3.5
v 2.5 2.2 -3.5
v 1.4 2.1 -0.2
v 1.4 2.2 -0.2
v 1.5 2.1 -0.2
v 1.5 2.2 -0.2
v 1.6 2.1 -0.2
v 1.6 2.2 -0.2
v 2.3 2.1 -0.2
v 2.3 2.2 -0.2
v 2.4 2.1 -0.2
v 2.4 2.2 -0.2
v 2.5 2.1 -0.2
v 2.5 2.2 -0.2
v 1.4 2.1 -0.9
v 1.4 2.2 -0.9
v 1.5 2.1 -0.9
v 1.5 2.2 -0.9
v 1.6 2.1 -0.9
v 1.6 2.2 -0.9
v 2.3 2.1 -0.9
v 2.3 2.2 -0.9
v 2.4 2.1 -0.9
v 2.4 2.2 -0.9
v 2.5 2.1 -0.9
v 2.5 2.2 -0.9
v 1.4 2.1 -1.6
v 1.4 2.2 -1.6
v 1.5 2.1 -1.6
v 1.5 2.2 -1.6
v 1.6 2.1 -1.6
v 1.6 2.2 -1.6
v 2.3 2.1 -1.6
v 2.3 2.2 -1.6
v 2.4 2.1 -1.6
v 2.4 2.2 -1.6
v 2.5 2.1 -1.6
v 2.5 2.2 -1.6
v 2.6 2.8 -2.2
v 2.6 2.9 -2.2
v 2.7 2.8 -2.2
v 2.7 2.9 -2.2
v 1.4 2.1 -2.3
v 1.4 2.2 -2.3
v 1.5 2.1 -2.3
v 1.5 2.2 -2.3
v 1.6 2.1 -2.3
v 1.6 2.2 -2.3
v 2.3 2.1 -2.3
v 2.3 2.2 -2.3
v 2.4 2.1 -2.3
v 2.4 2.2 -2.3
v 2.4 2.3 -2.3
v 2.4 2.4 -2.3
v 2.4 2.5 -2.3
v 2.4 2.6 -2.3
v 2.4 2.7 -2.3
v 2.4 2.8 -2.3
v 2.4 2.9 -2.3
v 2.4 3 -2.3
v 2.4 3.1 -2.3
v 2.5 2.1 -2.3
v 2.5 2.2 -2.3
v 2.5 2.3 -2.3
v 2.5 2.4 -2.3
v 2.5 2.5 -2.3
v 2.5 2.6 -2.3
v 2.5 2.7 -2.3
v 2.5 2.8 -2.3
v 2.5 2.9 -2.3
v 2.5 3 -2.3
v 2.5 3.1 -2.3
v 2.6 2.8 -2.4
v 2.6 2.9 -2.4
v 2.7 2.8 -2.4
v 2.7 2.9 -2.4
v 2.5 2.7 -2.5
v 2.5 2.9 -2.5
v 2.6 2.7 -2.5
v 2.6 2.9 -2.5
v 1.4 2.1 -3
v 1.4 2.2 -3
v 1.5 2.1 -3
v 1.5 2.2 -3
v 1.6 2.1 -3
v 1.6 2.2 -3
v 2.3 2.1 -3
v 2.3 2.2 -3
v 2.4 2.1 -3
v 2.4 2.2 -3
v 2.5 2.1 -3
v 2.5 2.2 -3
v 1.4 2.1 -3.6
v 1.4 2.2 -3.6
v 1.5 2.1 -3.6
v 1.5 2.2 -3.6
v 1.6 2.1 -3.6
v 1.6 2.2 -3.6
v 2.3 2.1 -3.6
v 2.3 2.2 -3.6
v 2.4 2.1 -3.6
v 2.4 2.2 -3.6
v 2.5 2.1 -3.6
v 2.5 2.2 -3.6
v 1.4 2 -4
v 1.4 2.1 -4
v 1.5 2.1 -4
v 1.5 2.2 -4
v 1.6 2.1 -4
v 1.6 2.2 -4
v 2.3 2.1 -4
v 2.3 2.2 -4
v 2.4 2.1 -4
v 2.4 2.2 -4
v 2.5 2 -4
v 2.5 2.1 -4
v 1.4 2 0
v 2.5 2 0
v 1.4 2 -4
v 2.5 2 -4
v 2.5 2.7 -2
v 2.6 2.7 -2
v 2.5 2.7 -2.2
v 2.5 2.7 -2.3
v 2.5 2.7 -2.5
v 2.6 2.7 -2.5
v 2.6 2.8 -2.1
v 2.7 2.8 -2.1
v 2.6 2.8 -2.2
v 2.7 2.8 -2.2
v 2.6 2.8 -2.3
v 2.7 2.8 -2.3
v 2.6 2.8 -2.4
v 2.7 2.8 -2.4
v 1.4 2.1 0
v 1.5 2.1 0
v 1.6 2.1 0
v 2.3 2.1 0
v 2.4 2.1 0
v 2.5 2.1 0
v 1.4 2.1 -0.1
v 1.5 2.1 -0.1
v 1.6 2.1 -0.1
v 2.3 2.1 -0.1
v 2.4 2.1 -0.1
v 2.5 2.1 -0.1
v 1.4 2.1 -0.2
v 1.5 2.1 -0.2
v 1.6 2.1 -0.2
v 2.3 2.1 -0.2
v 2.4 2.1 -0.2
v 2.5 2.1 -0.2
v 1.4 2.1 -0.8
v 1.5 2.1 -0.8
v 1.6 2.1 -0.8
v 2.3 2.1 -0.8
v 2.4 2.1 -0.8
v 2.5 2.1 -0.8
v 1.4 2.1 -0.9
v 1.5 2.1 -0.9
v 1.6 2.1 -0.9
v 2.3 2.1 -0.9
v 2.4 2.1 -0.9
v 2.5 2.1 -0.9
v 1.4 2.1 -1.5
v 1.5 2.1 -1.5
v 1.6 2.1 -1.5
v 2.3 2.1 -1.5
v 2.4 2.1 -1.5
v 2.5 2.1 -1.5
v 1.4 2.1 -1.6
v 1.5 2.1 -1.6
v 1.6 2.1 -1.6
v 2.3 2.1 -1.6
v 2.4 2.1 -1.6
v 2.5 2.1 -1.6
v 1.4 2.1 -2.2
v 1.5 2.1 -2.2
v 1.6 2.1 -2.2
v 2.3 2.1 -2.2
v 2.4 2.1 -2.2
v 2.5 2.1 -2.2
v 1.4 2.1 -2.3
v 1.5 2.1 -2.3
v 1.6 2.1 -2.3
v 2.3 2.1 -2.3
v 2.4 2.1 -2.3
v 2.5 2.1 -2.3
v 1.4 2.1 -2.9
v 1.5 2.1 -2.9
v 1.6 2.1 -2.9
v 2.3 2.1 -2.9
v 2.4 2.1 -2.9
v 2.5 2.1 -2.9
v 1.4 2.1 -3
v 1.5 2.1 -3
v 1.6 2.1 -3
v 2.3 2.1 -3
v 2.4 2.1 -3
v 2.5 2.1 -3
v 1.4 2.1 -3.5
v 1.5 2.1 -3.5
v 1.6 2.1 -3.5
v 2.3 2.1 -3.5
v 2.4 2.1 -3.5
v 2.5 2.1 -3.5
v 1.4 2.1 -3.6
v 1.5 2.1 -3.6
v 1.6 2.1 -3.6
v 2.3 2.1 -3.6
v 2.4 2.1 -3.6
v 2.5 2.1 -3.6
v 1.4 2.1 -4
v 1.5 2.1 -4
v 1.6 2.1 -4
v 2.3 2.1 -4
v 2.4 2.1 -4
v 2.5 2.1 -4
v 1.5 2.2 0
v 1.6 2.2 0
v 2.3 2.2 0
v 2.4 2.2 0
v 1.4 2.2 -0.1
v 1.5 2.2 -0.1
v 1.6 2.2 -0.1
v 2.3 2.2 -0.1
v 2.4 2.2 -0.1
v 2.5 2.2 -0.1
v 1.4 2.2 -0.2
v 1.5 2.2 -0.2
v 1.6 2.2 -0.2
v 2.3 2.2 -0.2
v 2.4 2.2 -0.2
v 2.5 2.2 -0.2
v 1.4 2.2 -0.8
v 1.5 2.2 -0.8
v 1.6 2.2 -0.8
v 2.3 2.2 -0.8
v 2.4 2.2 -0.8
v 2.5 2.2 -0.8
v 1.4 2.2 -0.9
v 1.5 2.2 -0.9
v 1.6 2.2 -0.9
v 2.3 2.2 -0.9
v 2.4 2.2 -0.9
v 2.5 2.2 -0.9
v 1.4 2.2 -1.5
v 1.5 2.2 -1.5
v 1.6 2.2 -1.5
v 2.3 2.2 -1.5
v 2.4 2.2 -1.5
v 2.5 2.2 -1.5
v 1.4 2.2 -1.6
v 1.5 2.2 -1.6
v 1.6 2.2 -1.6
v 2.3 2.2 -1.6
v 2.4 2.2 -1.6
v 2.5 2.2 -1.6
v 1.4 2.2 -2.2
v 1.5 2.2 -2.2
v 1.6 2.2 -2.2
v 2.3 2.2 -2.2
v 2.4 2.2 -2.2
v 1.4 2.2 -2.3
v 1.5 2.2 -2.3
v 1.6 2.2 -2.3
v 2.3 2.2 -2.3
v 2.4 2.2 -2.3
v 1.4 2.2 -2.9
v 1.5 2.2 -2.9
v 1.6 2.2 -2.9
v 2.3 2.2 -2.9
v 2.4 2.2 -2.9
v 2.5 2.2 -2.9
v 1.4 2.2 -3
v 1.5 2.2 -3
v 1.6 2.2 -3
v 2.3 2.2 -3
v 2.4 2.2 -3
v 2.5 2.2 -3
v 1.4 2.2 -3.5
v 1.5 2.2 -3.5
v 1.6 2.2 -3.5
v 2.3 2.2 -3.5
v 2.4 2.2 -3.5
v 2.5 2.2 -3.5
v 1.4 2.2 -3.6
v 1.5 2.2 -3.6
v 1.6 2.2 -3.6
v 2.3 2.2 -3.6
v 2.4 2.2 -3.6
v 2.5 2.2 -3.6
v 1.5 2.2 -4
v 1.6 2.2 -4
v 2.3 2.2 -4
v 2.4 2.2 -4
v 2.5 2.9 -2
v 2.6 2.9 -2
v 2.6 2.9 -2.1
v 2.7 2.9 -2.1
v 2.5 2.9 -2.2
v 2.6 2.9 -2.2
v 2.7 2.9 -2.2
v 2.5 2.9 -2.3
v 2.6 2.9 -2.3
v 2.7 2.9 -2.3
v 2.6 2.9 -2.4
v 2.7 2.9 -2.4
v 2.5 2.9 -2.5
v 2.6 2.9 -2.5
v 2.4 3.1 -2.2
v 2.5 3.1 -2.2
v 2.4 3.1 -2.3
v 2.5 3.1 -2.3

# faces
f 3/5/1 2/5/1 1/5/1
f 4/5/1 2/5/1 3/5/1
f 5/5/1 2/5/1 4/5/1
f 6/5/1 2/5/1 5/5/1
f 7/5/1 2/5/1 6/5/1
f 8/5/1 2/5/1 7/5/1
f 9/5/1 2/5/1 8/5/1
f 10/5/1 2/5/1 9/5/1
f 11/5/1 2/5/1 10/5/1
f 12/5/1 2/5/1 11/5/1
f 13/5/1 2/5/1 12/5/1
f 14/5/1 2/5/1 13/5/1
f 15/5/1 2/5/1 14/5/1
f 16/5/1 2/5/1 15/5/1
f 17/1/1 5/1/1 4/1/1
f 18/1/1 5/1/1 17/1/1
f 19/1/1 7/1/1 6/1/1
f 20/1/1 7/1/1 19/1/1
f 21/1/1 9/1/1 8/1/1
f 22/1/1 9/1/1 21/1/1
f 23/1/1 11/1/1 10/1/1
f 24/1/1 11/1/1 23/1/1
f 25/1/1 13/1/1 12/1/1
f 26/1/1 13/1/1 25/1/1
f 27/1/1 15/1/1 14/1/1
f 28/1/1 15/1/1 27/1/1
f 43/4/1 30/4/1 29/4/1
f 44/4/1 30/4/1 43/4/1
f 45/4/1 32/4/1 31/4/1
f 46/4/1 32/4/1 45/4/1
f 47/4/1 34/4/1 33/4/1
f 48/4/1 34/4/1 47/4/1
f 49/4/1 36/4/1 35/4/1
f 50/4/1 36/4/1 49/4/1
f 51/4/1 38/4/1 37/4/1
f 52/4/1 38/4/1 51/4/1
f 53/4/1 40/4/1 39/4/1
f 54/4/1 40/4/1 53/4/1
f 55/4/1 42/4/1 41/4/1
f 56/4/1 42/4/1 55/4/1
f 71/4/1 58/4/1 57/4/1
f 72/4/1 58/4/1 71/4/1
f 73/4/1 60/4/1 59/4/1
f 74/4/1 60/4/1 73/4/1
f 75/4/1 62/4/1 61/4/1
f 76/4/1 62/4/1 75/4/1
f 77/4/1 64/4/1 63/4/1
f 78/4/1 64/4/1 77/4/1
f 79/4/1 66/4/1 65/4/1
f 80/4/1 66/4/1 79/4/1
f 81/4/1 68/4/1 67/4/1
f 82/4/1 68/4/1 81/4/1
f 83/4/1 70/4/1 69/4/1
f 84/4/1 70/4/1 83/4/1
f 87/3/1 86/3/1 85/3/1
f 88/3/1 86/3/1 87/3/1
f 89/2/1 88/2/1 87/2/1
f 90/2/1 88/2/1 89/2/1
f 91/3/1 90/3/1 89/3/1
f 92/3/1 90/3/1 91/3/1
f 93/2/1 92/2/1 91/2/1
f 94/2/1 92/2/1 93/2/1
f 95/3/1 94/3/1 93/3/1
f 96/3/1 94/3/1 95/3/1
f 97/2/1 96/2/1 95/2/1
f 98/2/1 96/2/1 97/2/1
f 99/3/1 98/3/1 97/3/1
f 100/3/1 98/3/1 99/3/1
f 101/2/1 100/2/1 99/2/1
f 102/2/1 100/2/1 101/2/1
f 103/3/1 102/3/1 101/3/1
f 104/3/1 102/3/1 103/3/1
f 109/7/1 106/7/1 105/7/1
f 110/7/1 108/7/1 107/7/1
f 111/7/1 109/7/1 105/7/1
f 112/7/1 109/7/1 111/7/1
f 113/7/1 108/7/1 110/7/1
f 114/7/1 108/7/1 113/7/1
f 115/4/2 116/4/2 129/4/2
f 129/4/2 116/4/2 130/4/2
f 117/4/2 118/4/2 131/4/2
f 131/4/2 118/4/2 132/4/2
f 119/4/2 120/4/2 133/4/2
f 133/4/2 120/4/2 134/4/2
f 121/4/2 122/4/2 135/4/2
f 135/4/2 122/4/2 136/4/2
f 123/4/2 124/4/2 137/4/2
f 137/4/2 124/4/2 138/4/2
f 125/4/2 126/4/2 139/4/2
f 139/4/2 126/4/2 140/4/2
f 127/4/2 128/4/2 141/4/2
f 141/4/2 128/4/2 142/4/2
f 143/4/2 144/4/2 157/4/2
f 157/4/2 144/4/2 158/4/2
f 145/4/2 146/4/2 159/4/2
f 159/4/2 146/4/2 160/4/2
f 147/4/2 148/4/2 161/4/2
f 161/4/2 148/4/2 162/4/2
f 149/4/2 150/4/2 163/4/2
f 163/4/2 150/4/2 164/4/2
f 151/4/2 152/4/2 165/4/2
f 165/4/2 152/4/2 166/4/2
f 153/4/2 154/4/2 167/4/2
f 167/4/2 154/4/2 168/4/2
f 155/4/2 156/4/2 169/4/2
f 169/4/2 156/4/2 170/4/2
f 171/5/2 172/5/2 173/5/2
f 173/5/2 172/5/2 174/5/2
f 174/5/2 172/5/2 175/5/2
f 175/5/2 172/5/2 176/5/2
f 176/5/2 172/5/2 177/5/2
f 177/5/2 172/5/2 178/5/2
f 178/5/2 172/5/2 179/5/2
f 179/5/2 172/5/2 180/5/2
f 180/5/2 172/5/2 181/5/2
f 181/5/2 172/5/2 182/5/2
f 182/5/2 172/5/2 183/5/2
f 183/5/2 172/5/2 184/5/2
f 184/5/2 172/5/2 185/5/2
f 185/5/2 172/5/2 186/5/2
f 174/1/2 175/1/2 187/1/2
f 187/1/2 175/1/2 188/1/2
f 176/1/2 177/1/2 189/1/2
f 189/1/2 177/1/2 190/1/2
f 178/1/2 179/1/2 191/1/2
f 191/1/2 179/1/2 192/1/2
f 180/2/2 181/2/2 193/2/2
f 193/2/2 181/2/2 194/2/2
f 182/1/2 183/1/2 195/1/2
f 195/1/2 183/1/2 196/1/2
f 184/1/2 185/1/2 197/1/2
f 197/1/2 185/1/2 198/1/2
f 193/3/2 194/3/2 199/3/2
f 199/3/2 194/3/2 200/3/2
f 199/2/2 200/2/2 201/2/2
f 201/2/2 200/2/2 202/2/2
f 201/3/2 202/3/2 203/3/2
f 203/3/2 202/3/2 204/3/2
f 203/2/2 204/2/2 205/2/2
f 205/2/2 204/2/2 206/2/2
f 205/3/2 206/3/2 207/3/2
f 207/3/2 206/3/2 208/3/2
f 209/2/2 210/2/2 211/2/2
f 211/2/2 210/2/2 212/2/2
f 211/3/2 212/3/2 213/3/2
f 213/3/2 212/3/2 214/3/2
f 215/7/2 216/7/2 217/7/2
f 217/7/2 216/7/2 218/7/2
f 218/7/2 216/7/2 219/7/2
f 219/7/2 216/7/2 220/7/2
f 215/7/2 217/7/2 221/7/2
f 221/7/2 217/7/2 222/7/2
f 218/7/2 219/7/2 223/7/2
f 223/7/2 219/7/2 224/7/2
f 220/7/2 216/7/2 225/7/2
f 225/7/2 216/7/2 226/7/2
f 227/6/2 228/6/2 231/6/2
f 231/6/2 228/6/2 232/6/2
f 229/6/2 230/6/2 233/6/2
f 233/6/2 230/6/2 234/6/2
f 237/5/3 236/5/3 235/5/3
f 239/5/3 237/5/3 235/5/3
f 239/4/3 238/4/3 237/4/3
f 240/4/3 238/4/3 239/4/3
f 241/5/3 239/5/3 235/5/3
f 243/5/3 241/5/3 235/5/3
f 243/4/3 242/4/3 241/4/3
f 244/4/3 242/4/3 243/4/3
f 245/5/3 243/5/3 235/5/3
f 246/5/3 243/5/3 245/5/3
f 249/1/3 248/1/3 247/1/3
f 250/1/3 248/1/3 249/1/3
f 253/1/3 252/1/3 251/1/3
f 254/1/3 252/1/3 253/1/3
f 257/1/3 256/1/3 255/1/3
f 258/1/3 256/1/3 257/1/3
f 261/1/3 260/1/3 259/1/3
f 262/1/3 260/1/3 261/1/3
f 265/1/3 264/1/3 263/1/3
f 266/1/3 264/1/3 265/1/3
f 269/1/3 268/1/3 267/1/3
f 270/1/3 268/1/3 269/1/3
f 273/1/3 272/1/3 271/1/3
f 274/1/3 272/1/3 273/1/3
f 277/1/3 276/1/3 275/1/3
f 278/1/3 276/1/3 277/1/3
f 281/1/3 280/1/3 279/1/3
f 282/1/3 280/1/3 281/1/3
f 285/7/3 284/7/3 283/7/3
f 286/7/3 284/7/3 285/7/3
f 289/6/3 288/6/3 287/6/3
f 290/6/3 288/6/3 289/6/3
f 293/1/3 292/1/3 291/1/3
f 294/1/3 292/1/3 293/1/3
f 297/1/3 296/1/3 295/1/3
f 298/1/3 296/1/3 297/1/3
f 310/2/3 300/2/3 299/2/3
f 311/3/3 301/3/3 300/3/3
f 311/2/3 300/2/3 310/2/3
f 312/2/3 302/2/3 301/2/3
f 312/3/3 301/3/3 311/3/3
f 313/3/3 303/3/3 302/3/3
f 313/2/3 302/2/3 312/2/3
f 314/2/3 304/2/3 303/2/3
f 314/3/3 303/3/3 313/3/3
f 315/3/3 305/3/3 304/3/3
f 315/2/3 304/2/3 314/2/3
f 316/2/3 306/2/3 305/2/3
f 316/3/3 305/3/3 315/3/3
f 317/3/3 307/3/3 306/3/3
f 317/2/3 306/2/3 316/2/3
f 318/2/3 308/2/3 307/2/3
f 318/3/3 307/3/3 317/3/3
f 319/3/3 309/3/3 308/3/3
f 319/2/3 308/2/3 318/2/3
f 320/3/3 309/3/3 319/3/3
f 323/6/3 322/6/3 321/6/3
f 324/6/3 322/6/3 323/6/3
f 327/1/3 326/1/3 325/1/3
f 328/1/3 326/1/3 327/1/3
f 331/1/3 330/1/3 329/1/3
f 332/1/3 330/1/3 331/1/3
f 335/1/3 334/1/3 333/1/3
f 336/1/3 334/1/3 335/1/3
f 339/1/3 338/1/3 337/1/3
f 340/1/3 338/1/3 339/1/3
f 343/1/3 342/1/3 341/1/3
f 344/1/3 342/1/3 343/1/3
f 347/1/3 346/1/3 345/1/3
f 348/1/3 346/1/3 347/1/3
f 349/1/4 350/1/4 351/1/4
f 351/1/4 350/1/4 352/1/4
f 353/1/4 354/1/4 355/1/4
f 355/1/4 354/1/4 356/1/4
f 357/1/4 358/1/4 359/1/4
f 359/1/4 358/1/4 360/1/4
f 361/1/4 362/1/4 363/1/4
f 363/1/4 362/1/4 364/1/4
f 365/1/4 366/1/4 367/1/4
f 367/1/4 366/1/4 368/1/4
f 369/1/4 370/1/4 371/1/4
f 371/1/4 370/1/4 372/1/4
f 373/1/4 374/1/4 375/1/4
f 375/1/4 374/1/4 376/1/4
f 377/1/4 378/1/4 379/1/4
f 379/1/4 378/1/4 380/1/4
f 381/1/4 382/1/4 383/1/4
f 383/1/4 382/1/4 384/1/4
f 385/6/4 386/6/4 387/6/4
f 387/6/4 386/6/4 388/6/4
f 389/1/4 390/1/4 391/1/4
f 391/1/4 390/1/4 392/1/4
f 393/1/4 394/1/4 395/1/4
f 395/1/4 394/1/4 396/1/4
f 397/2/4 398/2/4 408/2/4
f 398/3/4 399/3/4 409/3/4
f 408/2/4 398/2/4 409/2/4
f 399/2/4 400/2/4 410/2/4
f 409/3/4 399/3/4 410/3/4
f 400/3/4 401/3/4 411/3/4
f 410/2/4 400/2/4 411/2/4
f 401/2/4 402/2/4 412/2/4
f 411/3/4 401/3/4 412/3/4
f 402/3/4 403/3/4 413/3/4
f 412/2/4 402/2/4 413/2/4
f 403/2/4 404/2/4 414/2/4
f 413/3/4 403/3/4 414/3/4
f 404/3/4 405/3/4 415/3/4
f 414/2/4 404/2/4 415/2/4
f 405/2/4 406/2/4 416/2/4
f 415/3/4 405/3/4 416/3/4
f 406/3/4 407/3/4 417/3/4
f 416/2/4 406/2/4 417/2/4
f 417/3/4 407/3/4 418/3/4
f 419/6/4 420/6/4 421/6/4
f 421/6/4 420/6/4 422/6/4
f 423/7/4 424/7/4 425/7/4
f 425/7/4 424/7/4 426/7/4
f 427/1/4 428/1/4 429/1/4
f 429/1/4 428/1/4 430/1/4
f 431/1/4 432/1/4 433/1/4
f 433/1/4 432/1/4 434/1/4
f 435/1/4 436/1/4 437/1/4
f 437/1/4 436/1/4 438/1/4
f 439/1/4 440/1/4 441/1/4
f 441/1/4 440/1/4 442/1/4
f 443/1/4 444/1/4 445/1/4
f 445/1/4 444/1/4 446/1/4
f 447/1/4 448/1/4 449/1/4
f 449/1/4 448/1/4 450/1/4
f 451/5/4 452/5/4 453/5/4
f 451/5/4 453/5/4 455/5/4
f 453/4/4 454/4/4 455/4/4
f 455/4/4 454/4/4 456/4/4
f 451/5/4 455/5/4 457/5/4
f 451/5/4 457/5/4 459/5/4
f 457/4/4 458/4/4 459/4/4
f 459/4/4 458/4/4 460/4/4
f 451/5/4 459/5/4 461/5/4
f 461/5/4 459/5/4 462/5/4
f 465/5/5 464/5/5 463/5/5
f 466/5/5 464/5/5 465/5/5
f 469/7/5 468/7/5 467/7/5
f 470/7/5 468/7/5 469/7/5
f 471/7/5 468/7/5 470/7/5
f 472/7/5 468/7/5 471/7/5
f 475/6/5 474/6/5 473/6/5
f 476/6/5 474/6/5 475/6/5
f 479/6/5 478/6/5 477/6/5
f 480/6/5 478/6/5 479/6/5
f 481/5/6 482/5/6 487/5/6
f 487/5/6 482/5/6 488/5/6
f 483/5/6 484/5/6 489/5/6
f 489/5/6 484/5/6 490/5/6
f 485/5/6 486/5/6 491/5/6
f 491/5/6 486/5/6 492/5/6
f 493/5/6 494/5/6 499/5/6
f 499/5/6 494/5/6 500/5/6
f 495/5/6 496/5/6 501/5/6
f 501/5/6 496/5/6 502/5/6
f 497/5/6 498/5/6 503/5/6
f 503/5/6 498/5/6 504/5/6
f 505/5/6 506/5/6 511/5/6
f 511/5/6 506/5/6 512/5/6
f 507/5/6 508/5/6 513/5/6
f 513/5/6 508/5/6 514/5/6
f 509/5/6 510/5/6 515/5/6
f 515/5/6 510/5/6 516/5/6
f 517/5/6 518/5/6 523/5/6
f 523/5/6 518/5/6 524/5/6
f 519/5/6 520/5/6 525/5/6
f 525/5/6 520/5/6 526/5/6
f 521/5/6 522/5/6 527/5/6
f 527/5/6 522/5/6 528/5/6
f 529/5/6 530/5/6 535/5/6
f 535/5/6 530/5/6 536/5/6
f 531/5/6 532/5/6 537/5/6
f 537/5/6 532/5/6 538/5/6
f 533/5/6 534/5/6 539/5/6
f 539/5/6 534/5/6 540/5/6
f 541/5/6 542/5/6 547/5/6
f 547/5/6 542/5/6 548/5/6
f 543/5/6 544/5/6 549/5/6
f 549/5/6 544/5/6 550/5/6
f 545/5/6 546/5/6 551/5/6
f 551/5/6 546/5/6 552/5/6
f 553/5/6 554/5/6 559/5/6
f 559/5/6 554/5/6 560/5/6
f 555/5/6 556/5/6 561/5/6
f 561/5/6 556/5/6 562/5/6
f 557/5/6 558/5/6 563/5/6
f 563/5/6 558/5/6 564/5/6
f 565/4/6 566/4/6 570/4/6
f 570/4/6 566/4/6 571/4/6
f 567/4/6 568/4/6 572/4/6
f 572/4/6 568/4/6 573/4/6
f 569/1/6 570/1/6 575/1/6
f 570/4/6 571/4/6 576/4/6
f 575/1/6 570/1/6 576/1/6
f 571/1/6 572/1/6 577/1/6
f 576/4/6 571/4/6 577/4/6
f 572/4/6 573/4/6 578/4/6
f 577/1/6 572/1/6 578/1/6
f 573/1/6 574/1/6 579/1/6
f 578/4/6 573/4/6 579/4/6
f 579/1/6 574/1/6 580/1/6
f 576/4/6 577/4/6 582/4/6
f 582/4/6 577/4/6 583/4/6
f 578/4/6 579/4/6 584/4/6
f 584/4/6 579/4/6 585/4/6
f 581/1/6 582/1/6 587/1/6
f 582/4/6 583/4/6 588/4/6
f 587/1/6 582/1/6 588/1/6
f 583/1/6 584/1/6 589/1/6
f 588/4/6 583/4/6 589/4/6
f 584/4/6 585/4/6 590/4/6
f 589/1/6 584/1/6 590/1/6
f 585/1/6 586/1/6 591/1/6
f 590/4/6 585/4/6 591/4/6
f 591/1/6 586/1/6 592/1/6
f 588/4/6 589/4/6 594/4/6
f 594/4/6 589/4/6 595/4/6
f 590/4/6 591/4/6 596/4/6
f 596/4/6 591/4/6 597/4/6
f 593/1/6 594/1/6 599/1/6
f 594/4/6 595/4/6 600/4/6
f 599/1/6 594/1/6 600/1/6
f 595/1/6 596/1/6 601/1/6
f 600/4/6 595/4/6 601/4/6
f 596/4/6 597/4/6 602/4/6
f 601/1/6 596/1/6 602/1/6
f 597/1/6 598/1/6 603/1/6
f 602/4/6 597/4/6 603/4/6
f 603/1/6 598/1/6 604/1/6
f 600/4/6 601/4/6 606/4/6
f 606/4/6 601/4/6 607/4/6
f 602/4/6 603/4/6 608/4/6
f 608/4/6 603/4/6 609/4/6
f 605/1/6 606/1/6 610/1/6
f 606/4/6 607/4/6 611/4/6
f 610/1/6 606/1/6 611/1/6
f 607/1/6 608/1/6 612/1/6
f 611/4/6 607/4/6 612/4/6
f 608/4/6 609/4/6 613/4/6
f 612/1/6 608/1/6 613/1/6
f 613/4/6 609/4/6 614/4/6
f 611/4/6 612/4/6 616/4/6
f 616/4/6 612/4/6 617/4/6
f 613/4/6 614/4/6 618/4/6
f 618/4/6 614/4/6 619/4/6
f 615/1/6 616/1/6 621/1/6
f 616/4/6 617/4/6 622/4/6
f 621/1/6 616/1/6 622/1/6
f 617/1/6 618/1/6 623/1/6
f 622/4/6 617/4/6 623/4/6
f 618/4/6 619/4/6 624/4/6
f 623/1/6 618/1/6 624/1/6
f 619/1/6 620/1/6 625/1/6
f 624/4/6 619/4/6 625/4/6
f 625/1/6 620/1/6 626/1/6
f 622/4/6 623/4/6 628/4/6
f 628/4/6 623/4/6 629/4/6
f 624/4/6 625/4/6 630/4/6
f 630/4/6 625/4/6 631/4/6
f 627/1/6 628/1/6 633/1/6
f 628/4/6 629/4/6 634/4/6
f 633/1/6 628/1/6 634/1/6
f 629/1/6 630/1/6 635/1/6
f 634/4/6 629/4/6 635/4/6
f 630/4/6 631/4/6 636/4/6
f 635/1/6 630/1/6 636/1/6
f 631/1/6 632/1/6 637/1/6
f 636/4/6 631/4/6 637/4/6
f 637/1/6 632/1/6 638/1/6
f 634/4/6 635/4/6 639/4/6
f 639/4/6 635/4/6 640/4/6
f 636/4/6 637/4/6 641/4/6
f 641/4/6 637/4/6 642/4/6
f 643/7/6 644/7/6 645/7/6
f 643/7/6 645/7/6 647/7/6
f 645/6/6 646/6/6 648/6/6
f 647/7/6 645/7/6 648/7/6
f 648/6/6 646/6/6 649/6/6
f 647/7/6 648/7/6 650/7/6
f 650/7/6 648/7/6 651/7/6
f 650/7/6 651/7/6 653/7/6
f 651/6/6 652/6/6 653/6/6
f 653/6/6 652/6/6 654/6/6
f 650/7/6 653/7/6 655/7/6
f 655/7/6 653/7/6 656/7/6
f 657/3/6 658/3/6 659/3/6
f 659/3/6 658/3/6 660/3/6
